<svg width="30" height="31" viewBox="0 0 30 31" fill="none" xmlns="http://www.w3.org/2000/svg">
<path fill-rule="evenodd" clip-rule="evenodd" d="M15 7.00409C14.3383 7.00403 13.6883 7.17907 13.1161 7.51144C12.5439 7.84381 12.0699 8.32168 11.7421 8.89651C11.4143 9.47135 11.2444 10.1227 11.2498 10.7844C11.2551 11.4461 11.4355 12.0946 11.7725 12.6641C11.8927 12.8665 11.9533 13.0988 11.9473 13.3341C11.9414 13.5695 11.869 13.7984 11.7387 13.9944C11.6083 14.1905 11.4252 14.3457 11.2105 14.4423C10.9958 14.5389 10.7582 14.5729 10.525 14.5403C9.91878 14.4548 9.30079 14.5189 8.72505 14.7272C8.14931 14.9355 7.63333 15.2816 7.22218 15.7353C6.81103 16.189 6.51722 16.7364 6.3664 17.3298C6.21559 17.9232 6.21236 18.5445 6.357 19.1394C6.50164 19.7344 6.78975 20.2848 7.19617 20.7428C7.60258 21.2007 8.11494 21.5521 8.68848 21.7664C9.26203 21.9807 9.87931 22.0512 10.4864 21.972C11.0935 21.8927 11.672 21.666 12.1713 21.3116C12.3776 21.1648 12.6236 21.0841 12.8768 21.0802C13.13 21.0763 13.3783 21.1494 13.5891 21.2898C13.7998 21.4302 13.9629 21.6313 14.0568 21.8664C14.1507 22.1015 14.171 22.3597 14.115 22.6066C13.8813 23.6745 13.5777 24.7259 13.2063 25.7541H16.7938C16.4163 24.7416 16.1188 23.6403 15.885 22.6066C15.829 22.3597 15.8493 22.1015 15.9432 21.8664C16.0372 21.6313 16.2003 21.4302 16.411 21.2898C16.6217 21.1494 16.8701 21.0763 17.1233 21.0802C17.3764 21.0841 17.6225 21.1648 17.8288 21.3116C18.3281 21.666 18.9065 21.8927 19.5136 21.972C20.1207 22.0512 20.738 21.9807 21.3116 21.7664C21.8851 21.5521 22.3975 21.2007 22.8039 20.7428C23.2103 20.2848 23.4984 19.7344 23.6431 19.1394C23.7877 18.5445 23.7845 17.9232 23.6337 17.3298C23.4828 16.7364 23.189 16.189 22.7779 15.7353C22.3667 15.2816 21.8507 14.9355 21.275 14.7272C20.6993 14.5189 20.0813 14.4548 19.475 14.5403C19.242 14.5727 19.0046 14.5386 18.7901 14.4421C18.5756 14.3456 18.3927 14.1905 18.2624 13.9946C18.1321 13.7988 18.0597 13.5702 18.0535 13.335C18.0474 13.0999 18.1077 12.8677 18.2275 12.6653C18.5649 12.0958 18.7455 11.4472 18.751 10.7853C18.7565 10.1234 18.5867 9.47186 18.2589 8.89682C17.9311 8.32179 17.4569 7.84378 16.8845 7.51134C16.3121 7.17891 15.6619 7.0039 15 7.00409ZM8.75003 10.7541C8.7505 9.87644 8.93581 9.00872 9.29389 8.20744C9.65197 7.40616 10.1748 6.68928 10.8283 6.10347C11.4819 5.51766 12.2515 5.07606 13.087 4.80742C13.9225 4.53879 14.8053 4.44913 15.6777 4.5443C16.5502 4.63947 17.3929 4.91732 18.1508 5.35977C18.9088 5.80222 19.5651 6.39935 20.077 7.11227C20.5888 7.8252 20.9448 8.63794 21.1217 9.49758C21.2986 10.3572 21.2925 11.2445 21.1038 12.1016C22.7067 12.4167 24.1226 13.3466 25.0487 14.6924C25.9747 16.0382 26.3372 17.6929 26.0587 19.3026C25.7802 20.9123 24.8828 22.349 23.5585 23.3055C22.2342 24.2619 20.5881 24.6621 18.9725 24.4203C19.2263 25.1728 19.51 25.8403 19.8225 26.3603C19.9365 26.5501 19.9981 26.7667 20.0009 26.988C20.0038 27.2094 19.9478 27.4275 19.8387 27.6201C19.7296 27.8127 19.5714 27.9729 19.3801 28.0843C19.1888 28.1957 18.9714 28.2543 18.75 28.2541H11.25C11.0288 28.254 10.8115 28.1953 10.6204 28.0838C10.4293 27.9723 10.2712 27.8121 10.1623 27.6195C10.0533 27.427 9.99747 27.2089 10.0004 26.9877C10.0033 26.7665 10.0648 26.55 10.1788 26.3603C10.4913 25.8403 10.7738 25.1728 11.0275 24.4203C9.39396 24.703 7.71503 24.3251 6.36008 23.3698C5.00513 22.4145 4.08515 20.9602 3.80253 19.3266C3.51991 17.693 3.89779 16.0141 4.85306 14.6591C5.80832 13.3042 7.26271 12.3842 8.89628 12.1016C8.79882 11.6591 8.74978 11.2072 8.75003 10.7541Z" fill="white"/>
</svg>
