<svg width="72" height="54" viewBox="0 0 72 54" fill="none" xmlns="http://www.w3.org/2000/svg">
<g filter="url(#filter0_d_340_9179)">
<path d="M35.4774 4.98645C35.714 5.13261 37.6489 6.46197 37.9621 9.14853H37.9552C37.5863 7.42941 35.9785 6.25317 34.1968 6.43413C35.6792 6.28101 36.1247 5.68245 35.4774 4.98645Z" fill="#BA1C1D"/>
<path d="M7.32405 2.30661C5.87637 2.62677 5.63974 3.58029 6.86469 4.58253C5.74414 3.79605 4.92982 4.05357 4.76278 5.15325C4.72798 4.89573 4.54702 2.61981 7.32405 2.29269V2.30661Z" fill="#FF9191"/>
<path d="M15.5018 8.40292C13.5879 8.60476 12.2028 10.31 12.4047 12.2309C12.2028 10.3169 10.8317 7.78349 9.34229 6.57941C10.8317 7.79045 13.5948 8.61172 15.5018 8.40988V8.40292Z" fill="#FF6E6E"/>
<path d="M17.6458 34.024C14.6113 34.379 13.2819 32.2423 13.1079 31.9569C14.0127 33.0148 14.5556 32.6251 14.3746 30.9199C14.5556 32.646 15.9685 33.9336 17.6388 34.024H17.6458Z" fill="#A61C1D"/>
<path d="M35.4764 4.98604C36.1237 5.689 35.6783 6.2806 34.1958 6.43372L15.5083 8.4034C13.5943 8.60524 10.8382 7.78396 9.34877 6.57292L7.12158 4.77725L7.10766 4.75637C7.03806 4.69373 6.9615 4.64501 6.8919 4.58933C6.88494 4.58933 6.87798 4.58933 6.87102 4.56845C5.64607 3.57317 5.88271 2.61269 7.33038 2.29253C7.49046 2.25077 7.66446 2.22293 7.85933 2.20205L23.7768 0.538611C25.6907 0.336771 28.593 0.94229 30.2634 1.88189L34.6273 4.35269C34.9892 4.56149 35.2746 4.77029 35.4556 4.96517C35.4556 4.96517 35.4625 4.96517 35.4764 4.98604Z" fill="#FF5050"/>
<path style="mix-blend-mode:screen" d="M35.4764 4.98604C36.1237 5.689 35.6783 6.2806 34.1958 6.43372L15.5083 8.4034C13.5943 8.60524 10.8382 7.78396 9.34877 6.57292L7.12158 4.77725L7.10766 4.75637C7.03806 4.69373 6.9615 4.64501 6.8919 4.58933C6.88494 4.58933 6.87798 4.58933 6.87102 4.56845C5.64607 3.57317 5.88271 2.61269 7.33038 2.29253C7.49046 2.25077 7.66446 2.22293 7.85933 2.20205L23.7768 0.538611C25.6907 0.336771 28.593 0.94229 30.2634 1.88189L34.6273 4.35269C34.9892 4.56149 35.2746 4.77029 35.4556 4.96517C35.4556 4.96517 35.4625 4.96517 35.4764 4.98604Z" fill="url(#paint0_linear_340_9179)"/>
<g style="mix-blend-mode:screen">
<path d="M35.4762 4.98635L35.4553 4.96547C35.2744 4.77059 34.996 4.56179 34.6271 4.35299L30.2632 1.8822C28.5859 0.935639 25.6836 0.33708 23.7765 0.53892L7.85215 2.20932C7.65727 2.2302 7.48327 2.25804 7.3232 2.2998C6.15392 2.55732 5.79201 3.23244 6.33488 4.005C14.8956 1.6386 24.6256 2.24412 31.6413 6.69851L34.1956 6.42707C35.678 6.27395 36.1235 5.67539 35.4762 4.97939V4.98635Z" fill="#302E2E"/>
</g>
<path d="M15.5018 8.40292C14.9729 8.60476 14.3952 8.65348 13.8315 8.6326C13.2677 8.61172 12.7109 8.50732 12.168 8.3542C11.6321 8.18717 11.1032 7.97141 10.616 7.67909C10.1357 7.39373 9.67636 7.03181 9.34229 6.57941C10.3654 7.03181 11.3468 7.38677 12.3629 7.68605C13.386 7.99229 14.3952 8.22892 15.5018 8.40292Z" fill="#FFA8A9"/>
<path style="mix-blend-mode:screen" d="M34.1962 6.43415C34.7182 6.37847 35.108 6.26711 35.3655 6.12095C28.5795 4.08863 21.6335 2.55047 14.6457 1.49951L7.85277 2.21639C7.65789 2.23727 7.4839 2.26511 7.32382 2.30687C6.67654 2.45303 6.27982 2.72447 6.14062 3.07247C11.9035 4.20695 17.5828 5.74511 23.1856 7.59646L34.1892 6.43415H34.1962Z" fill="url(#paint1_linear_340_9179)"/>
<path d="M38.0168 9.5314L39.9865 28.219C40.1883 30.126 38.7963 31.8451 36.8893 32.047L18.2018 34.0167C18.0209 34.0375 17.8469 34.0375 17.6729 34.0236C17.6659 34.0236 17.652 34.0236 17.645 34.0236C15.9677 33.9331 14.5618 32.6386 14.3808 30.9195L12.4111 12.2319C12.2093 10.3179 13.5943 8.60572 15.5083 8.40388L34.1958 6.43421C35.9775 6.24629 37.5853 7.42949 37.9542 9.1486C37.989 9.27388 38.0098 9.39916 38.0238 9.5314H38.0168Z" fill="#8A0310"/>
<path style="mix-blend-mode:screen" d="M38.0168 9.5314L39.9865 28.219C40.1883 30.126 38.7963 31.8451 36.8893 32.047L18.2018 34.0167C18.0209 34.0375 17.8469 34.0375 17.6729 34.0236C17.6659 34.0236 17.652 34.0236 17.645 34.0236C15.9677 33.9331 14.5618 32.6386 14.3808 30.9195L12.4111 12.2319C12.2093 10.3179 13.5943 8.60572 15.5083 8.40388L34.1958 6.43421C35.9775 6.24629 37.5853 7.42949 37.9542 9.1486C37.989 9.27388 38.0098 9.39916 38.0238 9.5314H38.0168Z" fill="url(#paint2_linear_340_9179)"/>
<path d="M12.4108 12.2313C12.1881 11.0202 12.724 9.68391 13.7471 8.90439C14.2552 8.51463 14.8816 8.26407 15.5219 8.18751L17.3384 7.95087C19.7605 7.63071 22.1965 7.36623 24.6255 7.10175C27.0545 6.85119 29.4905 6.60759 31.9265 6.41271L33.757 6.26655C34.3555 6.19695 35.0445 6.18999 35.6431 6.41271C36.8541 6.83727 37.7868 7.92999 37.9608 9.15495C37.6336 7.97175 36.6801 7.02519 35.5457 6.73983C34.9749 6.57279 34.4112 6.60063 33.8057 6.70503L31.9891 6.94167C29.5671 7.26183 27.138 7.52631 24.7021 7.79079C22.273 8.04135 19.837 8.28495 17.4011 8.47983L15.5706 8.62599C14.9929 8.66775 14.4361 8.85567 13.9489 9.18279C12.9606 9.80919 12.3551 11.0133 12.4177 12.2382L12.4108 12.2313Z" fill="#A81B1C"/>
<path style="mix-blend-mode:screen" d="M39.4909 23.4991C33.8395 17.6318 27.5964 12.3562 20.6573 7.86697L15.5069 8.40985C13.6138 8.61169 12.2427 10.2891 12.4098 12.1822C21.4577 17.7362 29.5661 24.5918 37.1594 31.9973C38.9272 31.6701 40.18 30.0415 39.9851 28.2249L39.4909 23.4991Z" fill="url(#paint3_linear_340_9179)"/>
<path style="mix-blend-mode:screen" d="M13.1499 19.2968L13.5745 23.3127C17.0544 26.6256 20.43 30.036 23.8404 33.4255L26.868 33.1054C22.511 28.2612 18.0497 23.5075 13.1569 19.2968H13.1499Z" fill="url(#paint4_linear_340_9179)"/>
<path style="mix-blend-mode:multiply" d="M38.0659 9.96967C35.957 10.3107 33.8551 10.6726 31.7602 11.0137C30.6257 11.2016 29.4634 12.2525 29.1989 13.3731C27.6399 19.9225 26.6098 26.4996 25.8999 33.2021L36.8897 32.0468C38.7967 31.8449 40.1887 30.1328 39.9868 28.2188L38.0659 9.96967Z" fill="url(#paint5_linear_340_9179)"/>
<path d="M9.34191 6.58003C10.8313 7.79106 12.2025 10.3175 12.4043 12.2315L14.374 30.9191C14.5549 32.6243 14.0051 33.0141 13.1072 31.9562C13.0028 31.817 12.8915 31.6778 12.7732 31.5107L8.43712 25.1702C7.35136 23.5833 6.30737 20.7575 6.10553 18.8435L4.7553 6.03715C4.7205 5.71003 4.72746 5.42467 4.76226 5.17411C4.76226 5.17411 4.76226 5.17411 4.76226 5.15323C4.9293 4.05355 5.74361 3.79603 6.86417 4.57555C6.87113 4.58947 6.87809 4.58947 6.88505 4.59643C6.96161 4.65907 7.03817 4.72171 7.11473 4.78435L9.34191 6.58003Z" fill="#D80002"/>
<path style="mix-blend-mode:screen" d="M9.34191 6.58003C10.8313 7.79106 12.2025 10.3175 12.4043 12.2315L14.374 30.9191C14.5549 32.6243 14.0051 33.0141 13.1072 31.9562C13.0028 31.817 12.8915 31.6778 12.7732 31.5107L8.43712 25.1702C7.35136 23.5833 6.30737 20.7575 6.10553 18.8435L4.7553 6.03715C4.7205 5.71003 4.72746 5.42467 4.76226 5.17411C4.76226 5.17411 4.76226 5.17411 4.76226 5.15323C4.9293 4.05355 5.74361 3.79603 6.86417 4.57555C6.87113 4.58947 6.87809 4.58947 6.88505 4.59643C6.96161 4.65907 7.03817 4.72171 7.11473 4.78435L9.34191 6.58003Z" fill="url(#paint6_linear_340_9179)"/>
<path d="M12.4117 12.231C12.718 13.7761 12.9477 15.3212 13.1704 16.8733C13.4001 18.4254 13.5741 19.9774 13.7411 21.5365C13.8942 23.0955 14.0543 24.6545 14.1517 26.2136L14.2979 28.5591C14.3257 29.3456 14.3675 30.1251 14.3745 30.9116C14.2144 30.139 14.0961 29.3665 13.9569 28.5939L13.6158 26.2693C13.3861 24.7172 13.2191 23.1651 13.0451 21.6061C12.892 20.047 12.7319 18.488 12.6345 16.922C12.5231 15.356 12.4257 13.797 12.4048 12.224L12.4117 12.231Z" fill="#FF2628"/>
<path d="M4.76148 5.15436C4.76148 4.92468 4.80324 4.67412 4.92852 4.4514C5.04684 4.22868 5.27652 4.04772 5.54795 3.98508C5.81939 3.91548 6.09083 3.9642 6.32747 4.04076C6.57107 4.11732 6.79379 4.23564 7.00954 4.36092L7.06522 4.39572L7.07914 4.43052L7.0165 4.36788L7.05826 4.39572L7.0861 4.4166L7.14874 4.45836L7.27402 4.54884L7.51762 4.7298L8.00482 5.09172C8.32497 5.33532 8.65905 5.57892 8.97225 5.83644C9.29241 6.09396 9.61257 6.31668 9.93272 6.62988C10.239 6.92916 10.5104 7.25628 10.761 7.59036C11.2551 8.27244 11.6518 9.01716 11.9442 9.78972C12.2295 10.5692 12.4174 11.3975 12.4035 12.2188C12.2086 11.4253 11.8885 10.6876 11.5126 9.9846C11.1438 9.28164 10.7122 8.60652 10.225 7.99404C9.74481 7.35372 9.18801 6.88044 8.54073 6.35844C8.22754 6.10092 7.9213 5.83644 7.6081 5.57196L7.14874 5.17524L6.91906 4.9734L6.8077 4.869L6.75203 4.82028L6.72419 4.79244C6.72419 4.79244 6.72419 4.79244 6.73115 4.79244C6.72419 4.79244 6.66155 4.73676 6.64067 4.70892L6.70331 4.77852C6.36227 4.521 5.97251 4.27044 5.57579 4.28436C5.38091 4.28436 5.18604 4.37484 5.04684 4.54188C4.90764 4.70892 4.8102 4.91772 4.74756 5.1474L4.76148 5.15436Z" fill="#F53B3C"/>
<path style="mix-blend-mode:screen" d="M13.546 23.0275L13.3372 21.0369C11.7504 22.5055 10.2122 24.0158 8.71582 25.5748L9.62061 26.9042C10.9012 25.5888 12.2097 24.2942 13.546 23.0344V23.0275Z" fill="url(#paint7_linear_340_9179)"/>
<path style="mix-blend-mode:screen" d="M7.31631 23.0686C9.0911 20.8971 10.9424 18.7882 12.8843 16.7768L12.404 12.2389C12.2231 10.5058 11.0816 8.28559 9.75925 6.97711C8.1515 8.87719 6.71079 10.9025 5.48584 13.0253L6.09832 18.8509C6.22359 20.0689 6.70383 21.6627 7.30935 23.0756L7.31631 23.0686Z" fill="url(#paint8_linear_340_9179)"/>
<path d="M18.2725 12.2732C18.3769 13.2268 17.6809 14.0828 16.7274 14.1872C15.7739 14.2847 14.9178 13.5956 14.8134 12.6421C14.7159 11.6886 15.405 10.8325 16.3585 10.7281C17.312 10.6307 18.1681 11.3197 18.2725 12.2732Z" fill="#AB6A6A"/>
<path d="M9.99639 16.9984C10.1704 18.8428 9.37695 18.9472 8.8828 18.2512C8.62528 17.8892 8.43736 17.2976 8.36776 16.7896C8.29816 16.2745 8.33992 15.669 8.52088 15.321C8.88976 14.632 9.79455 14.9869 9.98943 16.9914L9.99639 16.9984Z" fill="#E8B3B3"/>
<path d="M28.2456 19.7141C28.3431 20.6676 27.654 21.5237 26.7005 21.6281C25.747 21.7325 24.8909 21.0365 24.7865 20.083C24.6891 19.1294 25.3781 18.2734 26.3316 18.169C27.2852 18.0646 28.1412 18.7606 28.2456 19.7141Z" fill="#AB6A6A"/>
<path d="M37.23 27.6272C37.3274 28.5807 36.6384 29.4368 35.6849 29.5412C34.7314 29.6386 33.8753 28.9496 33.7709 27.9961C33.6735 27.0425 34.3625 26.1865 35.316 26.0821C36.2695 25.9846 37.1256 26.6737 37.23 27.6272Z" fill="#AB6A6A"/>
<path d="M15.94 5.9806C15.947 6.43996 15.1396 6.82276 14.1304 6.83668C13.1212 6.8506 12.3 6.49564 12.293 6.03628C12.2861 5.57692 13.0934 5.19413 14.1026 5.18021C15.1118 5.16629 15.9331 5.52125 15.94 5.9806Z" fill="white"/>
<path d="M32.6081 4.58317C32.6151 5.04253 31.8077 5.42533 30.7916 5.43925C29.7824 5.45317 28.9611 5.09821 28.9541 4.63885C28.9472 4.17949 29.7545 3.79669 30.7637 3.78277C31.7729 3.76885 32.5942 4.12381 32.6012 4.58317H32.6081Z" fill="white"/>
<path d="M26.7909 1.73536C26.7909 2.02768 26.1436 2.27824 25.3362 2.29216C24.5289 2.30608 23.8746 2.0764 23.8677 1.78408C23.8677 1.49176 24.515 1.2412 25.3223 1.23424C26.1297 1.22032 26.7839 1.45 26.7909 1.74232V1.73536Z" fill="white"/>
<path d="M10.3714 3.41401C10.3714 3.70633 9.72415 3.95689 8.91679 3.97081C8.10944 3.98473 7.4552 3.75505 7.44824 3.46273C7.44824 3.17041 8.09552 2.91985 8.90287 2.91289C9.71023 2.89897 10.3645 3.12865 10.3714 3.42097V3.41401Z" fill="white"/>
<path d="M51.0717 42.7673C50.9882 44.5073 52.06 45.2798 53.5146 44.6117C51.5798 45.6905 50.2295 45.8436 47.8979 44.7578C49.5614 45.5026 50.9812 44.6186 51.0717 42.7673Z" fill="#A61C1D"/>
<path d="M64.8129 14.2284C67.1236 15.1958 67.054 16.6922 66.9913 18.0007C67.0748 16.1493 65.7177 15.0566 63.9707 15.5508C65.3557 15.154 65.6411 14.6251 64.8129 14.2214V14.2284Z" fill="#BA1C1D"/>
<path d="M34.2937 13.8598C32.6441 13.4074 31.2174 14.3401 30.9877 15.9896H30.9668C30.9877 13.3587 32.5537 12.4609 34.3702 12.4748C32.5745 12.7462 32.5328 13.3726 34.2937 13.8598Z" fill="#FF9191"/>
<path d="M55.3668 17.9808C53.6129 18.4749 52.1165 20.382 52.0329 22.2264C52.1165 20.375 50.7662 18.4819 49.0054 17.9877C50.7662 18.4819 53.6129 18.4749 55.3668 17.9808Z" fill="#FF9696"/>
<path d="M53.5164 44.6088C52.0617 45.2769 50.9899 44.5043 51.0734 42.7644L52.0339 22.2254C52.1174 20.3741 53.6138 18.474 55.3677 17.9798L63.9702 15.5508C65.7241 15.0566 67.0743 16.1493 66.9908 18.0007L66.2392 34.0783C66.1556 35.9296 64.7915 38.1638 63.2046 39.0756L53.7948 44.4695C53.7043 44.5183 53.6068 44.5739 53.5164 44.6088Z" fill="#8A0310"/>
<path style="mix-blend-mode:screen" d="M53.5164 44.6088C52.0617 45.2769 50.9899 44.5043 51.0734 42.7644L52.0339 22.2254C52.1174 20.3741 53.6138 18.474 55.3677 17.9798L63.9702 15.5508C65.7241 15.0566 67.0743 16.1493 66.9908 18.0007L66.2392 34.0783C66.1556 35.9296 64.7915 38.1638 63.2046 39.0756L53.7948 44.4695C53.7043 44.5183 53.6068 44.5739 53.5164 44.6088Z" fill="url(#paint9_linear_340_9179)"/>
<path style="mix-blend-mode:screen" d="M55.3601 17.9874C53.6131 18.4885 52.1237 20.3886 52.0402 22.233L51.9497 24.1261C57.0444 26.8335 61.7772 30.1743 66.2455 33.9188L66.6491 25.358C62.9812 22.7619 59.1811 20.3538 55.3601 17.9874Z" fill="url(#paint10_linear_340_9179)"/>
<path style="mix-blend-mode:screen" d="M51.2729 38.5709C53.1591 39.8933 55.0035 41.2992 56.7504 42.7817L62.2279 39.6427C58.7549 37.0049 55.2053 34.4784 51.5792 32.1329L51.2799 38.5709H51.2729Z" fill="url(#paint11_linear_340_9179)"/>
<path d="M64.8124 14.228C65.6337 14.6316 65.3553 15.1606 63.9702 15.5573L55.3677 17.9864C53.6138 18.4805 50.7672 18.4875 49.0063 17.9933L34.286 13.866C32.5252 13.3788 32.5669 12.7524 34.3626 12.481L44.6912 10.9011C46.4938 10.6296 49.3961 10.7271 51.1778 11.1238L63.9215 13.9496C64.0677 13.9844 64.1999 14.0192 64.3113 14.054C64.4017 14.0888 64.4853 14.1096 64.5618 14.1444C64.6384 14.1792 64.7289 14.2071 64.7985 14.2419L64.8124 14.228Z" fill="#FF5050"/>
<path style="mix-blend-mode:screen" d="M64.8124 14.228C65.6337 14.6316 65.3553 15.1606 63.9702 15.5573L55.3677 17.9864C53.6138 18.4805 50.7672 18.4875 49.0063 17.9933L34.286 13.866C32.5252 13.3788 32.5669 12.7524 34.3626 12.481L44.6912 10.9011C46.4938 10.6296 49.3961 10.7271 51.1778 11.1238L63.9215 13.9496C64.0677 13.9844 64.1999 14.0192 64.3113 14.054C64.4017 14.0888 64.4853 14.1096 64.5618 14.1444C64.6384 14.1792 64.7289 14.2071 64.7985 14.2419L64.8124 14.228Z" fill="url(#paint12_linear_340_9179)"/>
<g style="mix-blend-mode:screen">
<path d="M64.8116 14.2287C64.7351 14.1939 64.6516 14.1661 64.575 14.1313C64.4984 14.0965 64.408 14.0756 64.3244 14.0408C64.2061 14.006 64.0739 13.9712 63.9347 13.9364L51.191 11.1106C49.4093 10.7139 46.5139 10.6165 44.7043 10.8879L34.3758 12.4678C32.5801 12.7393 32.5383 13.3657 34.2992 13.8529L35.4267 14.1661C43.7299 12.3982 53.286 12.8785 60.2668 16.5951L63.9834 15.5441C65.3684 15.1474 65.6538 14.6185 64.8256 14.2148L64.8116 14.2287Z" fill="#302E2E"/>
</g>
<path style="mix-blend-mode:screen" d="M64.8129 14.2276C64.7363 14.1928 64.6528 14.165 64.5762 14.1302C64.4997 14.0954 64.4092 14.0745 64.3257 14.0397C64.2074 14.0049 64.0751 13.9701 63.9359 13.9353L55.8693 12.1466C48.2899 11.9935 40.7384 12.3345 33.333 13.476C33.5488 13.6012 33.8689 13.7335 34.3004 13.8518L42.2765 16.0929C49.5288 15.5083 56.8925 15.1394 64.1795 15.4804C65.3766 15.0907 65.5994 14.5965 64.8198 14.2207L64.8129 14.2276Z" fill="url(#paint13_linear_340_9179)"/>
<path d="M52.0335 22.2332L51.0731 42.7722C50.9896 44.6235 49.5697 45.5074 47.8993 44.7627L33.005 38.0881C31.3416 37.3434 30.061 35.2414 30.1445 33.3901L30.9449 16.3242C30.9449 16.2128 30.9588 16.1015 30.9797 15.9971C31.2094 14.3476 32.6362 13.4149 34.2857 13.8673L49.006 17.9946C50.7668 18.4887 52.1171 20.3819 52.0335 22.2332Z" fill="#D80002"/>
<path style="mix-blend-mode:screen" d="M52.0335 22.2332L51.0731 42.7722C50.9896 44.6235 49.5697 45.5074 47.8993 44.7627L33.005 38.0881C31.3416 37.3434 30.061 35.2414 30.1445 33.3901L30.9449 16.3242C30.9449 16.2128 30.9588 16.1015 30.9797 15.9971C31.2094 14.3476 32.6362 13.4149 34.2857 13.8673L49.006 17.9946C50.7668 18.4887 52.1171 20.3819 52.0335 22.2332Z" fill="url(#paint14_linear_340_9179)"/>
<path style="mix-blend-mode:screen" d="M51.2674 38.7153L51.6363 30.8365C48.031 34.3722 44.4884 37.9914 41.0015 41.6663L46.0544 43.9283C47.7805 42.1813 49.5135 40.4413 51.2674 38.7153Z" fill="url(#paint15_linear_340_9179)"/>
<path style="mix-blend-mode:screen" d="M33.012 38.0793L35.6011 39.2416C40.5983 32.8872 46.1385 26.8598 51.9152 21.1665C51.5672 19.7049 50.4258 18.3895 49.006 17.9858L41.8651 15.9814C37.9466 19.8024 34.1256 23.7417 30.409 27.7855L30.1445 33.3744C30.061 35.2257 31.3416 37.3276 33.005 38.0724L33.012 38.0793Z" fill="url(#paint16_linear_340_9179)"/>
<path d="M48.9508 22.364C48.8952 23.5055 48.1922 24.3963 47.3709 24.3615C46.5497 24.3267 45.9302 23.3663 45.9859 22.2248C46.0416 21.0834 46.7445 20.1925 47.5658 20.2273C48.3871 20.2621 49.0065 21.2226 48.9508 22.364Z" fill="#E8B3B3"/>
<path d="M47.5658 20.2277C46.7445 20.186 46.0346 21.0838 45.9859 22.2252C45.9511 22.9352 46.1808 23.5824 46.5636 23.9652C46.494 22.5106 47.3013 21.1395 48.4428 20.694C48.2061 20.4156 47.9068 20.2416 47.5728 20.2277H47.5658Z" fill="#E8B3B3"/>
<path style="mix-blend-mode:screen" d="M46.5571 23.9721C46.7868 24.2087 47.0652 24.3479 47.3715 24.3619C48.1927 24.4036 48.8957 23.5058 48.9514 22.3643C48.9862 21.6962 48.7774 21.0907 48.4363 20.7009C47.2949 21.1463 46.4945 22.5175 46.5571 23.9721Z" fill="url(#paint17_linear_340_9179)"/>
<path d="M59.474 15.4113C58.437 15.3626 57.6157 14.9937 57.6366 14.5831C57.6575 14.1724 58.5136 13.8871 59.5436 13.9288C60.5807 13.9775 61.402 14.3464 61.388 14.7571C61.3672 15.1677 60.5111 15.4531 59.474 15.4043V15.4113Z" fill="white"/>
<path d="M38.4551 14.0323C37.4946 13.9906 36.729 13.6426 36.7499 13.2667C36.7708 12.8909 37.5642 12.6195 38.5178 12.6612C39.4782 12.7099 40.2438 13.051 40.2229 13.4268C40.2021 13.8027 39.4156 14.0741 38.4551 14.0323Z" fill="white"/>
<path d="M48.5334 31.2385C48.4777 32.3799 47.7747 33.2708 46.9535 33.236C46.1322 33.1942 45.5127 32.2407 45.5684 31.0993C45.6241 29.9578 46.3271 29.067 47.1483 29.1018C47.9696 29.1435 48.589 30.097 48.5334 31.2385Z" fill="#E8B3B3"/>
<path style="mix-blend-mode:screen" d="M45.8877 32.4901C46.1383 32.9216 46.5141 33.214 46.9595 33.2348C47.7808 33.2766 48.4838 32.3788 48.5394 31.2373C48.5673 30.5831 48.3724 29.9915 48.0453 29.6017C47.0918 29.9984 46.18 31.0842 45.8877 32.4901Z" fill="url(#paint18_linear_340_9179)"/>
<path d="M47.1487 29.1022C46.3274 29.0604 45.6245 29.9582 45.5688 31.0997C45.5409 31.6286 45.6662 32.1158 45.8889 32.4917C46.1813 31.0858 47.1 30 48.0465 29.6033C47.8099 29.311 47.4967 29.1231 47.1487 29.1091V29.1022Z" fill="#E8B3B3"/>
<path d="M48.1442 39.6669C48.0885 40.8083 47.3856 41.6992 46.5643 41.6644C45.743 41.6226 45.1236 40.6691 45.1793 39.5277C45.2349 38.3862 45.9379 37.4954 46.7592 37.5302C47.5804 37.5719 48.1999 38.5254 48.1442 39.6669Z" fill="#E8B3B3"/>
<path style="mix-blend-mode:screen" d="M45.4419 40.8217C45.6925 41.3089 46.0892 41.636 46.5624 41.6569C47.3837 41.6987 48.0867 40.8008 48.1424 39.6594C48.1632 39.1652 48.0588 38.7128 47.864 38.3509C47.676 38.3927 47.4812 38.4414 47.2724 38.504C46.7921 38.504 45.6368 39.5132 45.4419 40.8217Z" fill="url(#paint19_linear_340_9179)"/>
<path d="M46.752 37.5306C45.9307 37.4888 45.2277 38.3867 45.1721 39.5281C45.1512 40.0153 45.2556 40.4607 45.4435 40.8296C45.6384 39.5142 46.7868 38.5119 47.274 38.5119C47.4828 38.4493 47.6777 38.4006 47.8656 38.3588C47.615 37.8786 47.2183 37.5584 46.7589 37.5375L46.752 37.5306Z" fill="#E8B3B3"/>
<g style="mix-blend-mode:screen">
<path d="M55.6526 40.5363C55.2141 41.5872 54.2536 42.1858 53.495 41.8587C52.7364 41.5385 52.4789 40.4249 52.9173 39.367C53.3558 38.316 54.3163 37.7244 55.0749 38.0446C55.8335 38.3647 56.0911 39.4783 55.6526 40.5363Z" fill="#635E5E"/>
</g>
<path style="mix-blend-mode:screen" d="M54.3312 38.0038C53.7675 38.143 53.2177 38.6441 52.9114 39.3679C52.4729 40.4189 52.7374 41.5325 53.4891 41.8596C53.67 41.9362 53.8719 41.9571 54.0668 41.9362C55.0829 41.3933 55.7232 38.7763 54.3243 38.0038H54.3312Z" fill="url(#paint20_linear_340_9179)"/>
<g style="mix-blend-mode:screen">
<path d="M65.3415 18.9964C64.9935 19.8316 64.2348 20.2979 63.6363 20.0474C63.0377 19.7899 62.8289 18.9129 63.1769 18.0777C63.5249 17.2425 64.2836 16.7762 64.8891 17.0267C65.4876 17.2843 65.6964 18.1612 65.3484 18.9964H65.3415Z" fill="#635E5E"/>
</g>
<path style="mix-blend-mode:screen" d="M64.5274 16.9635C64.0054 16.9635 63.4486 17.395 63.1702 18.0771C62.8291 18.9053 63.031 19.7683 63.6087 20.0398C64.249 19.8936 65.5018 18.3485 64.5274 16.9704V16.9635Z" fill="url(#paint21_linear_340_9179)"/>
<g style="mix-blend-mode:screen">
<path d="M61.2638 29.039C60.9088 29.902 60.1154 30.3892 59.4959 30.1248C58.8765 29.8603 58.6607 28.9485 59.0157 28.0855C59.3707 27.2224 60.1641 26.7352 60.7835 26.9997C61.403 27.2642 61.6187 28.176 61.2568 29.039H61.2638Z" fill="#635E5E"/>
</g>
<path style="mix-blend-mode:screen" d="M60.2119 26.9585C59.7386 27.0629 59.2653 27.4735 59.0148 28.086C58.6598 28.9491 58.8686 29.8608 59.495 30.1253C61.0819 29.3875 60.9914 27.1186 60.2119 26.9585Z" fill="url(#paint22_linear_340_9179)"/>
<path d="M35.4752 18.0898C35.4265 19.1338 34.7792 19.955 34.0276 19.9202C33.2759 19.8854 32.7052 19.0085 32.7539 17.9645C32.8026 16.9205 33.4499 16.0992 34.2015 16.134C34.9532 16.1688 35.5239 17.0458 35.4752 18.0898Z" fill="#E8B3B3"/>
<path style="mix-blend-mode:screen" d="M33.5905 19.7901C33.7227 19.8597 33.8689 19.9154 34.0289 19.9224C34.7806 19.9572 35.4279 19.1359 35.4766 18.0919C35.5114 17.4029 35.2678 16.7973 34.892 16.4493C33.6949 17.0688 32.8666 18.4817 33.5905 19.7901Z" fill="url(#paint23_linear_340_9179)"/>
<path d="M32.7543 17.9645C32.7125 18.7927 33.0675 19.5096 33.5895 19.788C32.8657 18.4795 33.6939 17.0666 34.891 16.4472C34.6961 16.2662 34.4595 16.1479 34.202 16.134C33.4503 16.0992 32.803 16.9205 32.7543 17.9645Z" fill="#E8B3B3"/>
<path d="M35.0929 26.226C35.0442 27.27 34.3969 28.0912 33.6452 28.0564C32.8936 28.0216 32.3228 27.1447 32.3716 26.1007C32.4203 25.0567 33.0676 24.2354 33.8192 24.2702C34.5709 24.305 35.1416 25.182 35.0929 26.226Z" fill="#E8B3B3"/>
<path style="mix-blend-mode:screen" d="M33.3329 27.9879C33.4303 28.0296 33.5347 28.0575 33.6461 28.0575C34.3977 28.0923 35.045 27.271 35.0937 26.227C35.1285 25.531 34.878 24.9116 34.4882 24.5636C33.479 25.1482 32.9501 26.5332 33.3329 27.9809V27.9879Z" fill="url(#paint24_linear_340_9179)"/>
<path d="M32.3712 26.1025C32.3295 26.9934 32.7401 27.759 33.3247 27.9887C32.9419 26.534 33.4779 25.156 34.4801 24.5713C34.2852 24.3973 34.0625 24.2859 33.8119 24.279C33.0603 24.2442 32.413 25.0655 32.3643 26.1095L32.3712 26.1025Z" fill="#E8B3B3"/>
<path d="M34.7325 33.9535C34.6838 34.9975 34.0365 35.8188 33.2849 35.784C32.5332 35.7492 31.9625 34.8722 32.0112 33.8282C32.0599 32.7842 32.7072 31.9629 33.4589 31.9977C34.2105 32.0325 34.7813 32.9095 34.7325 33.9535Z" fill="#E8B3B3"/>
<path style="mix-blend-mode:screen" d="M32.5726 35.4566C32.7744 35.6515 33.0111 35.7698 33.2825 35.7837C34.0342 35.8185 34.6815 34.9973 34.7302 33.9533C34.758 33.3826 34.5979 32.8745 34.3265 32.5126C32.9902 32.1298 32.3638 34.1273 32.5726 35.4566Z" fill="url(#paint25_linear_340_9179)"/>
<path d="M55.3666 17.9808C54.8934 18.2592 54.3505 18.4262 53.8215 18.5376C53.2856 18.6489 52.7358 18.6977 52.1929 18.7046C51.6431 18.7046 51.1002 18.6559 50.5643 18.5445C50.0284 18.4332 49.4924 18.2731 49.0122 17.9877C50.1119 17.9947 51.142 18.0086 52.1929 18.0086H53.7659L55.3736 17.9808H55.3666Z" fill="#FFA8A9"/>
<path d="M30.9869 15.9902C31.0217 15.4612 31.2027 14.9253 31.5507 14.5007C31.8917 14.0692 32.3929 13.756 32.9427 13.6238C33.4925 13.4915 34.0911 13.5681 34.5992 13.7142L36.1373 14.097C38.1905 14.6051 40.2298 15.1689 42.269 15.7326C44.3013 16.3103 46.3336 16.895 48.359 17.5214C48.8462 17.6814 49.396 17.8067 49.8832 18.106C50.3635 18.3914 50.7811 18.7672 51.1221 19.1918C51.7763 20.0618 52.1661 21.1614 52.0408 22.2194C52.006 21.1614 51.5606 20.1522 50.8646 19.4075C50.5235 19.0317 50.1199 18.7115 49.6744 18.4818C49.2359 18.2452 48.7348 18.1617 48.2128 18.0294C46.1596 17.5214 44.1204 16.9576 42.0811 16.3938C40.0488 15.8162 38.0165 15.2315 35.9911 14.5982L34.4739 14.1249C33.9797 13.9509 33.4995 13.8674 32.9984 13.9439C32.5112 14.0066 32.0379 14.2362 31.6829 14.6051C31.328 14.974 31.0913 15.4612 30.98 15.9762L30.9869 15.9902Z" fill="#F53B3C"/>
<path d="M52.0339 22.2328C51.9922 20.5972 52.9666 18.9895 54.4142 18.0986C54.7692 17.8759 55.2146 17.7088 55.5835 17.6114L56.7389 17.2634L59.0565 16.5883C60.6086 16.1567 62.1607 15.7322 63.7267 15.3563C64.5201 15.1197 65.5223 15.1545 66.2114 15.7322C66.8934 16.3099 67.1092 17.2286 66.9839 18.0151C66.9491 17.2147 66.6498 16.4073 66.0026 16.0036C65.3831 15.5791 64.5897 15.5999 63.8728 15.8714C62.3416 16.3725 60.7965 16.8179 59.2444 17.2634L56.9129 17.9037L55.7436 18.2099C55.3399 18.3074 55.0128 18.4048 54.6648 18.5788C53.9897 18.9199 53.3981 19.4558 52.9387 20.0822C52.4655 20.7016 52.1383 21.4463 52.02 22.2467L52.0339 22.2328Z" fill="#A81B1C"/>
<path d="M52.0341 22.2327C52.0967 23.9518 52.0828 25.664 52.0619 27.3762C52.048 29.0883 51.9715 30.8005 51.9019 32.5126C51.8114 34.2248 51.7279 35.937 51.5817 37.6421L51.3659 40.2034C51.2685 41.0595 51.1919 41.9086 51.0736 42.7647C51.0319 41.9086 51.0388 41.0456 51.0249 40.1895L51.0458 37.6143C51.0597 35.9022 51.1363 34.19 51.2059 32.4778C51.2963 30.7657 51.3868 29.0535 51.526 27.3483C51.6652 25.6362 51.8114 23.931 52.0341 22.2258V22.2327Z" fill="#FF2628"/>
</g>
<defs>
<filter id="filter0_d_340_9179" x="0.732422" y="0.499786" width="70.2852" height="53.0005" filterUnits="userSpaceOnUse" color-interpolation-filters="sRGB">
<feFlood flood-opacity="0" result="BackgroundImageFix"/>
<feColorMatrix in="SourceAlpha" type="matrix" values="0 0 0 0 0 0 0 0 0 0 0 0 0 0 0 0 0 0 127 0" result="hardAlpha"/>
<feOffset dy="4"/>
<feGaussianBlur stdDeviation="2"/>
<feComposite in2="hardAlpha" operator="out"/>
<feColorMatrix type="matrix" values="0 0 0 0 0 0 0 0 0 0 0 0 0 0 0 0 0 0 0.25 0"/>
<feBlend mode="normal" in2="BackgroundImageFix" result="effect1_dropShadow_340_9179"/>
<feBlend mode="normal" in="SourceGraphic" in2="effect1_dropShadow_340_9179" result="shape"/>
</filter>
<linearGradient id="paint0_linear_340_9179" x1="7.4487" y1="12.0644" x2="29.8389" y2="-0.700164" gradientUnits="userSpaceOnUse">
<stop stop-color="#AD9E80"/>
<stop offset="1"/>
</linearGradient>
<linearGradient id="paint1_linear_340_9179" x1="-3.74947" y1="-2.8296" x2="23.0464" y2="5.28567" gradientUnits="userSpaceOnUse">
<stop stop-color="#AD9E80"/>
<stop offset="1"/>
</linearGradient>
<linearGradient id="paint2_linear_340_9179" x1="38.7754" y1="34.1767" x2="16.5035" y2="9.47584" gradientUnits="userSpaceOnUse">
<stop stop-color="#9E8A62"/>
<stop offset="1"/>
</linearGradient>
<linearGradient id="paint3_linear_340_9179" x1="52.0258" y1="43.3908" x2="20.9355" y2="12.8853" gradientUnits="userSpaceOnUse">
<stop stop-color="#2B261B"/>
<stop offset="1"/>
</linearGradient>
<linearGradient id="paint4_linear_340_9179" x1="44.8247" y1="55.5096" x2="15.2447" y2="22.6864" gradientUnits="userSpaceOnUse">
<stop stop-color="#2B261B"/>
<stop offset="1"/>
</linearGradient>
<linearGradient id="paint5_linear_340_9179" x1="16.8868" y1="45.9876" x2="39.2214" y2="14.9601" gradientUnits="userSpaceOnUse">
<stop stop-color="#FFDF9E"/>
<stop offset="1" stop-color="#A1A1A1"/>
</linearGradient>
<linearGradient id="paint6_linear_340_9179" x1="7.75504" y1="26.4438" x2="9.78737" y2="17.6255" gradientUnits="userSpaceOnUse">
<stop stop-color="#594418"/>
<stop offset="1"/>
</linearGradient>
<linearGradient id="paint7_linear_340_9179" x1="-5.16929" y1="42.773" x2="15.3001" y2="19.5754" gradientUnits="userSpaceOnUse">
<stop stop-color="#9E8A62"/>
<stop offset="1"/>
</linearGradient>
<linearGradient id="paint8_linear_340_9179" x1="-10.0975" y1="36.4318" x2="15.6545" y2="6.90765" gradientUnits="userSpaceOnUse">
<stop stop-color="#9E8A62"/>
<stop offset="1"/>
</linearGradient>
<linearGradient id="paint9_linear_340_9179" x1="65.6476" y1="46.8499" x2="56.7735" y2="24.7519" gradientUnits="userSpaceOnUse">
<stop stop-color="#9E8A62"/>
<stop offset="1"/>
</linearGradient>
<linearGradient id="paint10_linear_340_9179" x1="72.3215" y1="35.6727" x2="58.492" y2="24.0566" gradientUnits="userSpaceOnUse">
<stop stop-color="#1F1B13"/>
<stop offset="1"/>
</linearGradient>
<linearGradient id="paint11_linear_340_9179" x1="64.2672" y1="44.5982" x2="54.8712" y2="37.861" gradientUnits="userSpaceOnUse">
<stop stop-color="#1F1B13"/>
<stop offset="1"/>
</linearGradient>
<linearGradient id="paint12_linear_340_9179" x1="50.4958" y1="22.1763" x2="48.5818" y2="10.5183" gradientUnits="userSpaceOnUse">
<stop stop-color="#AD9E80"/>
<stop offset="1"/>
</linearGradient>
<linearGradient id="paint13_linear_340_9179" x1="33.166" y1="17.7285" x2="52.9462" y2="13.6152" gradientUnits="userSpaceOnUse">
<stop stop-color="#AD9E80"/>
<stop offset="1"/>
</linearGradient>
<linearGradient id="paint14_linear_340_9179" x1="37.2436" y1="42.6747" x2="41.2039" y2="28.88" gradientUnits="userSpaceOnUse">
<stop stop-color="#594418"/>
<stop offset="1"/>
</linearGradient>
<linearGradient id="paint15_linear_340_9179" x1="38.0922" y1="45.6544" x2="50.1539" y2="36.3698" gradientUnits="userSpaceOnUse">
<stop stop-color="#9E8A62"/>
<stop offset="1"/>
</linearGradient>
<linearGradient id="paint16_linear_340_9179" x1="22.1545" y1="37.8079" x2="50.4537" y2="20.408" gradientUnits="userSpaceOnUse">
<stop stop-color="#9E8A62"/>
<stop offset="1"/>
</linearGradient>
<linearGradient id="paint17_linear_340_9179" x1="47.6638" y1="24.5567" x2="47.9561" y2="19.5734" gradientUnits="userSpaceOnUse">
<stop stop-color="white"/>
<stop offset="1"/>
</linearGradient>
<linearGradient id="paint18_linear_340_9179" x1="47.398" y1="34.6338" x2="46.9943" y2="28.3698" gradientUnits="userSpaceOnUse">
<stop stop-color="white"/>
<stop offset="1"/>
</linearGradient>
<linearGradient id="paint19_linear_340_9179" x1="46.3954" y1="42.6174" x2="47.8988" y2="33.8617" gradientUnits="userSpaceOnUse">
<stop stop-color="white"/>
<stop offset="1"/>
</linearGradient>
<linearGradient id="paint20_linear_340_9179" x1="52.1667" y1="44.8176" x2="54.4844" y2="38.5536" gradientUnits="userSpaceOnUse">
<stop stop-color="white"/>
<stop offset="1"/>
</linearGradient>
<linearGradient id="paint21_linear_340_9179" x1="61.6668" y1="23.7634" x2="64.9172" y2="16.2188" gradientUnits="userSpaceOnUse">
<stop stop-color="white"/>
<stop offset="1"/>
</linearGradient>
<linearGradient id="paint22_linear_340_9179" x1="57.6854" y1="33.0206" x2="60.8174" y2="26.346" gradientUnits="userSpaceOnUse">
<stop stop-color="white"/>
<stop offset="1"/>
</linearGradient>
<linearGradient id="paint23_linear_340_9179" x1="34.3978" y1="20.3539" x2="34.3978" y2="15.0156" gradientUnits="userSpaceOnUse">
<stop stop-color="white"/>
<stop offset="1"/>
</linearGradient>
<linearGradient id="paint24_linear_340_9179" x1="34.1681" y1="28.2384" x2="34.1124" y2="23.0185" gradientUnits="userSpaceOnUse">
<stop stop-color="white"/>
<stop offset="1"/>
</linearGradient>
<linearGradient id="paint25_linear_340_9179" x1="33.1572" y1="36.5493" x2="34.1456" y2="31.907" gradientUnits="userSpaceOnUse">
<stop stop-color="white"/>
<stop offset="1"/>
</linearGradient>
</defs>
</svg>
