<svg width="60" height="46" viewBox="0 0 60 46" fill="none" xmlns="http://www.w3.org/2000/svg">
<path d="M57.3807 30.7573C57.3125 30.8935 57.2473 31.0267 57.176 31.1629C55.6474 34.1202 53.5482 36.5355 51.17 38.2696C48.9158 39.9169 46.4135 40.9574 43.9174 41.2763C41.5888 41.5736 39.2664 41.2423 37.1548 40.1925C38.6679 40.7561 40.302 40.8831 41.9671 40.6322C44.3329 40.2761 46.7577 39.1428 48.9778 37.3715C51.263 35.5539 53.3281 33.0642 54.8846 30.0513C54.9869 29.8562 55.0831 29.6611 55.1792 29.4629C56.5559 26.6172 57.297 23.6878 57.4365 20.9505C57.5946 17.9344 57.0303 15.1506 55.79 12.9551C54.8784 11.3387 53.604 10.0444 51.9855 9.2114C51.8738 9.15257 51.756 9.09683 51.6413 9.04419C52.032 9.19282 52.4165 9.36623 52.7947 9.55822C54.8629 10.6234 56.4815 12.2615 57.6101 14.2681C58.9093 16.5719 59.5574 19.3619 59.4954 22.313C59.4333 25.0751 58.7481 27.9766 57.3838 30.7573H57.3807Z" fill="url(#paint0_radial_281_1449)"/>
<path d="M55.1793 29.4627C55.0863 29.6577 54.9871 29.8559 54.8847 30.051C53.3313 33.064 51.2631 35.5536 48.9779 37.3713C46.7578 39.1394 44.3299 40.2728 41.9641 40.632C39.9394 40.9385 37.9611 40.6815 36.1937 39.7711C35.7596 39.5482 35.3503 39.2911 34.9658 39.0032C33.3566 37.7986 32.1876 36.0614 31.4868 33.9929C30.721 31.7293 30.5163 29.0694 30.9132 26.2794C31.245 23.9167 32.0078 21.4611 33.2232 19.0737C33.248 19.0272 33.2697 18.9808 33.2945 18.9312C34.6589 16.293 36.4108 14.0573 38.3611 12.3201C40.2339 10.651 42.2866 9.44647 44.3455 8.79309C46.6586 8.05921 48.9841 8.02205 51.0678 8.80858C51.3778 8.92625 51.6848 9.06249 51.9856 9.21732C53.6042 10.0503 54.8785 11.3478 55.7901 12.9611C57.0304 15.1565 57.5948 17.9434 57.4366 20.9564C57.294 23.6938 56.5529 26.6231 55.1793 29.4688V29.4627Z" fill="url(#paint1_radial_281_1449)"/>
<path d="M50.7353 27.9089C47.8609 33.4734 42.3541 36.3501 38.4379 34.3311C34.5217 32.3153 33.6783 26.1655 36.5527 20.601C39.427 15.0364 44.9339 12.1597 48.8501 14.1787C52.7662 16.1977 53.6096 22.3443 50.7353 27.9089Z" fill="url(#paint2_radial_281_1449)"/>
<path d="M44.0599 12.62C42.5282 13.069 40.9964 13.936 39.5949 15.1468L38.3608 12.3165C40.2337 10.6475 42.2863 9.44293 44.3452 8.78955L44.0599 12.62Z" fill="url(#paint3_linear_281_1449)"/>
<path d="M33.9268 25.6968L30.916 26.2728C31.2478 23.9101 32.0106 21.4546 33.226 19.0671L35.6229 20.315C34.7237 22.0986 34.1625 23.9349 33.9299 25.6968H33.9268Z" fill="url(#paint4_linear_281_1449)"/>
<path d="M37.1666 35.1572L34.9682 39C33.359 37.7955 32.19 36.0583 31.4893 33.9898L34.3946 31.3639C34.9465 32.9556 35.8799 34.2778 37.1666 35.1603V35.1572Z" fill="url(#paint5_linear_281_1449)"/>
<path d="M48.9806 37.3703C46.7605 39.1385 44.3326 40.2718 41.9668 40.631L42.3792 36.175C44.1187 35.8623 45.8923 34.9891 47.5109 33.6637L48.9806 37.3703Z" fill="url(#paint6_linear_281_1449)"/>
<path d="M55.1792 29.4625L51.9297 27.9266C52.925 25.8581 53.4645 23.7307 53.5731 21.7334L57.4396 20.95C57.297 23.6874 56.5559 26.6167 55.1823 29.4625H55.1792Z" fill="url(#paint7_linear_281_1449)"/>
<path d="M55.7901 12.9544L52.4134 15.8838C51.7344 14.6359 50.7669 13.6326 49.5267 12.9947C49.4119 12.9359 49.2941 12.8801 49.1763 12.8275L51.0677 8.80194C51.3778 8.91961 51.6847 9.05586 51.9855 9.21069C53.6041 10.0437 54.8785 11.3411 55.7901 12.9544Z" fill="url(#paint8_linear_281_1449)"/>
<path d="M40.2026 33.7109L40.3917 32.9089C41.0801 33.073 41.818 33.0792 42.587 32.9336L42.742 33.7418C41.8583 33.9122 41.0057 33.8998 40.2026 33.7109ZM37.9267 32.5404C37.3065 31.9985 36.8011 31.311 36.4259 30.4936L37.1763 30.1529C37.5019 30.862 37.936 31.4566 38.4693 31.9211L37.9267 32.5404ZM45.0924 32.8841L44.7017 32.1595C45.3466 31.8127 45.9761 31.3668 46.5683 30.8404L47.1171 31.4566C46.4753 32.0264 45.7962 32.5063 45.0955 32.8841H45.0924ZM35.7624 28.0844C35.6631 27.2948 35.66 26.4618 35.7531 25.6103L36.5716 25.7001C36.4848 26.4897 36.4879 27.2546 36.5779 27.9822L35.7624 28.0844ZM48.7822 29.6482L48.128 29.1496C48.5869 28.5458 49.0024 27.8893 49.359 27.1957L49.3651 27.1833L50.1 27.558L50.0907 27.5735C49.7124 28.3074 49.2721 29.0041 48.7822 29.6451V29.6482ZM37.0461 23.4489L36.2585 23.2042C36.5003 22.4332 36.8135 21.6714 37.1918 20.9376L37.9236 21.3153C37.567 22.009 37.2724 22.7243 37.0461 23.4489ZM51.0302 25.2944L50.2426 25.0498C50.2675 24.9693 50.2923 24.8888 50.314 24.8083C50.5062 24.1394 50.6426 23.4644 50.714 22.8017L51.5325 22.8884C51.455 23.6006 51.3124 24.3221 51.1046 25.0374C51.0798 25.1241 51.055 25.2077 51.0271 25.2944H51.0302ZM39.1576 19.3614L38.5034 18.8629C39.0119 18.1971 39.5731 17.5871 40.1716 17.0545L40.7204 17.6676C40.1623 18.1661 39.6351 18.7359 39.1607 19.3583L39.1576 19.3614ZM50.7078 20.5164C50.6085 19.7268 50.407 18.996 50.1093 18.3488L50.8597 18.0051C51.1946 18.7297 51.4178 19.5379 51.5263 20.4142L50.7109 20.5164H50.7078ZM42.5808 16.3485L42.187 15.6239C42.9622 15.2027 43.756 14.9147 44.5374 14.7661L44.6924 15.5743C43.9916 15.7075 43.2816 15.9707 42.5808 16.3485ZM48.8163 16.5838C48.5435 16.3454 48.2427 16.141 47.9233 15.9769C47.5978 15.8097 47.2474 15.6796 46.8908 15.596L47.0799 14.794C47.4985 14.8931 47.9171 15.0448 48.3016 15.243C48.6799 15.4381 49.0365 15.6796 49.359 15.9614L48.8194 16.5807L48.8163 16.5838Z" fill="#F4F4F4"/>
<path d="M48.7854 26.9015C46.7018 30.9363 42.7111 33.0203 39.8709 31.5587C37.0338 30.0972 36.4198 25.6412 38.5035 21.6064C40.5872 17.5716 44.5778 15.4876 47.418 16.9492C50.2552 18.4107 50.8691 22.8667 48.7854 26.9015Z" fill="url(#paint9_radial_281_1449)"/>
<path d="M48.785 26.9017C46.8254 30.695 43.1821 32.7635 40.3945 31.7819C43.1107 32.3981 46.4688 30.3513 48.323 26.7685C50.4067 22.7337 49.7959 18.2778 46.9587 16.8131C46.7882 16.7264 46.6145 16.649 46.4347 16.587C46.7758 16.6645 47.1045 16.7852 47.4238 16.9462C50.261 18.4078 50.8718 22.8638 48.7881 26.8986L48.785 26.9017Z" fill="url(#paint10_radial_281_1449)"/>
<path d="M57.61 14.2647L55.7899 12.9518C54.8782 11.3354 53.6039 10.041 51.9853 9.20805C51.8737 9.14921 51.7558 9.09347 51.6411 9.04083C52.0318 9.18947 52.4163 9.36288 52.7946 9.55486C54.8627 10.6201 56.4813 12.2582 57.61 14.2647Z" fill="url(#paint11_linear_281_1449)"/>
<path d="M57.3807 30.7571L55.1792 29.4658C56.5559 26.6201 57.297 23.6907 57.4365 20.9534L59.4923 22.3128C59.4303 25.0749 58.745 27.9764 57.3807 30.7571Z" fill="url(#paint12_linear_281_1449)"/>
<path d="M51.1726 38.2655C48.9184 39.9129 46.4161 40.9533 43.9201 41.2723L41.9697 40.6282C44.3356 40.2721 46.7603 39.1388 48.9804 37.3675L51.1726 38.2655Z" fill="url(#paint13_linear_281_1449)"/>
<path fill-rule="evenodd" clip-rule="evenodd" d="M47.9418 9.3691C48.2456 9.44961 48.3976 9.88003 48.2797 10.3228C48.2022 10.6139 48.0224 10.8431 47.8332 11.0134C47.3464 11.4531 47.0643 11.6544 46.6054 12.2148C46.4782 11.5553 46.3449 11.1806 46.1217 10.5613C46.0472 10.3569 46.0193 10.0163 46.0906 9.74379C46.2085 9.29788 46.5526 9.00061 46.8565 9.08422C47.1232 9.15544 47.272 9.48987 47.2255 9.87074C47.3743 9.51774 47.672 9.29788 47.9356 9.3691H47.9418Z" fill="url(#paint14_radial_281_1449)"/>
<path fill-rule="evenodd" clip-rule="evenodd" d="M51.1454 33.7264C50.7857 34.0763 50.2493 34.1166 49.9516 33.8131C49.7563 33.615 49.716 33.3115 49.7377 33.0173C49.7873 32.2556 49.8741 31.8344 49.7904 31.0634C50.516 31.1346 50.9842 31.1005 51.7594 31.0386C52.0167 31.02 52.3547 31.1006 52.5376 31.2863C52.8322 31.5898 52.7826 32.1224 52.4229 32.4754C52.1066 32.782 51.6601 32.8501 51.3532 32.6612C51.5361 32.9709 51.4586 33.4168 51.1454 33.7233V33.7264Z" fill="url(#paint15_radial_281_1449)"/>
<path fill-rule="evenodd" clip-rule="evenodd" d="M31.5615 30.5434C31.6577 30.9181 32.0049 31.0822 32.3336 30.9057C32.5476 30.788 32.7026 30.5496 32.8111 30.3019C33.0902 29.6671 33.2111 29.2955 33.5863 28.6886C33.0654 28.5709 32.7615 28.4284 32.2623 28.1931C32.0949 28.1126 31.8344 28.1002 31.6328 28.2086C31.3073 28.3851 31.1181 28.8341 31.2174 29.2119C31.3011 29.5401 31.577 29.7042 31.8654 29.6206C31.6111 29.8312 31.4809 30.2152 31.5646 30.5434H31.5615Z" fill="url(#paint16_radial_281_1449)"/>
<path fill-rule="evenodd" clip-rule="evenodd" d="M54.2333 17.058C54.7914 17.2252 55.3496 17.3367 55.9139 17.3739C55.6007 17.7919 55.331 18.2966 55.0922 18.8695C54.5682 18.6466 54.007 18.5506 53.4116 18.5537C53.7589 18.117 54.0349 17.6185 54.2333 17.058Z" fill="url(#paint17_radial_281_1449)"/>
<path fill-rule="evenodd" clip-rule="evenodd" d="M35.7157 16.1293C36.2955 16.0767 36.8568 15.9714 37.3932 15.7949C37.2599 16.2996 37.1978 16.8694 37.1916 17.4887C36.6211 17.4763 36.0661 17.6002 35.5142 17.8231C35.6723 17.2874 35.7405 16.7239 35.7157 16.1293Z" fill="url(#paint18_radial_281_1449)"/>
<path fill-rule="evenodd" clip-rule="evenodd" d="M37.9331 37.3056C38.4106 36.9712 38.8447 36.6058 39.223 36.1877C39.3563 36.6925 39.5858 37.2158 39.8897 37.7608C39.3904 38.0302 38.9656 38.4142 38.5998 38.8787C38.4726 38.3368 38.2494 37.8103 37.9362 37.3056H37.9331Z" fill="url(#paint19_radial_281_1449)"/>
<path d="M55.7904 12.9542C55.7904 12.9542 55.8555 13.075 55.9795 13.301C56.0415 13.4156 56.1067 13.5581 56.1904 13.7253C56.2338 13.8089 56.271 13.9018 56.3144 14.0009C56.3547 14.1 56.4043 14.2021 56.4477 14.3136C56.6307 14.7564 56.8229 15.3076 56.9904 15.9548C57.1609 16.602 57.3035 17.3451 57.3935 18.1626C57.4803 18.9801 57.5082 19.875 57.471 20.8164C57.471 20.9341 57.4586 21.0548 57.4493 21.1725C57.44 21.2902 57.4307 21.4109 57.4214 21.5317C57.4028 21.7732 57.3873 22.0179 57.35 22.2625C57.319 22.5071 57.2849 22.7579 57.2539 23.0088C57.2136 23.2565 57.164 23.5073 57.1206 23.7612C57.0958 23.8882 57.0772 24.0151 57.0493 24.1421C57.0183 24.2691 56.9904 24.396 56.9594 24.523C56.9315 24.6499 56.9004 24.7769 56.8694 24.907C56.8384 25.0339 56.8136 25.164 56.7733 25.2909C56.6989 25.5448 56.6276 25.8019 56.5532 26.0589L56.4974 26.2509L56.4322 26.4429C56.3888 26.5698 56.3454 26.6968 56.302 26.8268C56.1377 27.3409 55.9237 27.8456 55.7253 28.3534C55.6199 28.6043 55.502 28.852 55.3904 29.1028L55.2199 29.4775L55.0369 29.846L54.9439 30.0287C54.9129 30.0937 54.8788 30.1494 54.8447 30.2114L54.6462 30.5706L54.4478 30.9298C54.3796 31.0474 54.3207 31.1713 54.2431 31.2859C53.9517 31.7473 53.6788 32.221 53.3594 32.6608C52.761 33.5588 52.0758 34.3793 51.3936 35.1473C51.2138 35.3331 51.0401 35.5189 50.8634 35.7016C50.7735 35.7914 50.6928 35.8874 50.5998 35.971C50.5099 36.0577 50.4169 36.1413 50.327 36.228C50.144 36.3983 49.9704 36.5686 49.7874 36.7296C49.6014 36.8845 49.4184 37.0393 49.2386 37.191C48.5161 37.798 47.7782 38.3058 47.0743 38.73C46.3674 39.1573 45.6914 39.4949 45.0744 39.7519C44.4573 40.0089 43.9023 40.1947 43.4372 40.3186C43.3225 40.3526 43.2108 40.3805 43.1085 40.4053C43.0031 40.43 42.907 40.4548 42.817 40.4765C42.6341 40.5136 42.4791 40.5477 42.3519 40.5694C42.0977 40.6127 41.9644 40.6344 41.9644 40.6344C41.9644 40.6344 42.0977 40.6096 42.3519 40.5663C42.4791 40.5446 42.6341 40.5074 42.817 40.4672C42.907 40.4455 43.0031 40.4207 43.1085 40.3929C43.2108 40.3681 43.3225 40.3402 43.4372 40.3031C43.8992 40.173 44.4511 39.9841 45.0651 39.7209C45.679 39.4577 46.3519 39.114 47.0557 38.6898C47.7596 38.2624 48.4913 37.7546 49.2107 37.1477C49.3905 36.9959 49.5735 36.8411 49.7564 36.6832C49.9363 36.5222 50.1099 36.3519 50.2928 36.1846C50.3828 36.101 50.4727 36.0143 50.5626 35.9276C50.6556 35.844 50.7362 35.748 50.8262 35.6582C50.9998 35.4755 51.1734 35.2897 51.3502 35.1039C52.0292 34.3329 52.7083 33.5154 53.3036 32.6174C53.6199 32.1808 53.8897 31.7101 54.178 31.2487C54.2524 31.1341 54.3145 31.0103 54.3796 30.8926L54.578 30.5334L54.7765 30.1742C54.8075 30.1154 54.8447 30.0534 54.8726 29.9946L54.9625 29.8088L55.1454 29.4403L55.316 29.0656C55.4276 28.8179 55.5454 28.5702 55.654 28.3194C55.8524 27.8115 56.0695 27.313 56.2338 26.799C56.2772 26.672 56.3206 26.545 56.364 26.4181L56.4291 26.2292L56.485 26.0372C56.5594 25.7802 56.6338 25.5263 56.7051 25.2724C56.7454 25.1454 56.7702 25.0184 56.8012 24.8915C56.8322 24.7645 56.8601 24.6345 56.8911 24.5106C56.9221 24.3836 56.9501 24.2567 56.9811 24.1297C57.009 24.0028 57.0276 23.8758 57.0524 23.7519C57.0989 23.498 57.1485 23.2503 57.1888 22.9995C57.2229 22.7487 57.2539 22.504 57.288 22.2594C57.3252 22.0148 57.3407 21.7701 57.3594 21.5286C57.3687 21.4078 57.378 21.2871 57.3873 21.1694C57.3966 21.0486 57.4059 20.9341 57.409 20.8164C57.4524 19.8781 57.4245 18.9863 57.3407 18.1688C57.2539 17.3513 57.1175 16.6113 56.9532 15.9641C56.7888 15.3169 56.6028 14.7626 56.426 14.3198C56.3826 14.2083 56.3361 14.1061 56.2958 14.0071C56.2524 13.908 56.2152 13.8151 56.1749 13.7315C56.0943 13.5642 56.0291 13.4187 55.9671 13.3072C55.8462 13.0781 55.7811 12.9604 55.7811 12.9604L55.7904 12.9542Z" fill="white"/>
<path d="M35.3655 34.8765C35.2973 35.0128 35.2322 35.1459 35.1609 35.2822C33.6322 38.2394 31.5331 40.6547 29.1548 42.3888C26.9006 44.0361 24.3984 45.0766 21.9023 45.3955C19.5737 45.6928 17.2512 45.3615 15.1396 44.3117C16.6528 44.8753 18.2869 45.0023 19.9519 44.7514C22.3178 44.3953 24.7425 43.262 26.9626 41.4908C29.2479 39.6731 31.3129 37.1834 32.8695 34.1705C32.9687 33.9754 33.0679 33.7803 33.164 33.5852C34.5408 30.7395 35.2818 27.8102 35.4214 25.0728C35.5795 22.0567 35.0152 19.2729 33.7749 17.0775C32.8633 15.4611 31.5889 14.1667 29.9703 13.3337C29.8587 13.2749 29.7409 13.2191 29.6261 13.1665C30.0168 13.3151 30.4013 13.4885 30.7796 13.6805C32.8478 14.7458 34.4663 16.3838 35.595 18.3904C36.8942 20.6942 37.5422 23.4843 37.4802 26.4353C37.4182 29.1974 36.733 32.0989 35.3686 34.8796L35.3655 34.8765Z" fill="url(#paint20_radial_281_1449)"/>
<path d="M33.1642 33.5858C33.0712 33.7809 32.9719 33.9791 32.8696 34.1711C31.3131 37.184 29.248 39.6736 26.9628 41.4913C24.7427 43.2595 22.3148 44.3928 19.949 44.752C17.9242 45.0586 15.946 44.8016 14.1786 43.8912C13.7445 43.6682 13.3352 43.4112 12.9507 43.1232C11.3414 41.9187 10.1725 40.1815 9.4717 38.113C8.70582 35.8494 8.50118 33.1894 8.89807 30.3994C9.22984 28.0368 9.99261 25.5812 11.2081 23.1937C11.2329 23.1473 11.2546 23.1008 11.2825 23.0513C12.6468 20.413 14.3987 18.1773 16.3491 16.4401C18.2219 14.7711 20.2745 13.5665 22.3334 12.9132C24.6465 12.1793 26.969 12.1421 29.0557 12.9286C29.3658 13.0463 29.6728 13.1795 29.9735 13.3374C31.5921 14.1704 32.8665 15.4678 33.7781 17.0811C35.0184 19.2766 35.5827 22.0635 35.4246 25.0765C35.282 27.8138 34.5409 30.7432 33.1673 33.5889L33.1642 33.5858Z" fill="url(#paint21_radial_281_1449)"/>
<path d="M28.7206 32.0289C25.8463 37.5934 20.3394 40.4701 16.4232 38.4512C12.5071 36.4353 11.6637 30.2855 14.538 24.721C17.4124 19.1565 22.9192 16.2798 26.8354 18.2987C30.7516 20.3177 31.595 26.4644 28.7206 32.0289Z" fill="url(#paint22_radial_281_1449)"/>
<path d="M22.0448 16.7401C20.513 17.1891 18.9813 18.0561 17.5798 19.2669L16.3457 16.4366C18.2185 14.7675 20.2712 13.563 22.3301 12.9096L22.0448 16.7401Z" fill="url(#paint23_linear_281_1449)"/>
<path d="M11.9117 29.8203L8.90088 30.3963C9.23265 28.0336 9.99543 25.578 11.2109 23.1906L13.6077 24.4385C12.7085 26.2221 12.1473 28.0584 11.9148 29.8203H11.9117Z" fill="url(#paint24_linear_281_1449)"/>
<path d="M15.152 39.2807L12.9536 43.1235C11.3443 41.9189 10.1754 40.1818 9.47461 38.1133L12.38 35.4874C12.9319 37.079 13.8652 38.4012 15.152 39.2838V39.2807Z" fill="url(#paint25_linear_281_1449)"/>
<path d="M26.9655 41.4915C24.7453 43.2596 22.3175 44.393 19.9517 44.7522L20.3641 40.2962C22.1035 39.9835 23.8772 39.1102 25.4957 37.7849L26.9655 41.4915Z" fill="url(#paint26_linear_281_1449)"/>
<path d="M33.1641 33.5859L29.9146 32.05C30.9099 29.9815 31.4494 27.8541 31.5579 25.8569L35.4245 25.0734C35.2819 27.8108 34.5408 30.7401 33.1672 33.5859H33.1641Z" fill="url(#paint27_linear_281_1449)"/>
<path d="M33.7783 17.0745L30.4017 20.0038C29.7226 18.7559 28.7552 17.7526 27.5149 17.1147C27.4002 17.0559 27.2824 17.0002 27.1646 16.9475L29.056 12.922C29.366 13.0397 29.673 13.1728 29.9738 13.3307C31.5924 14.1637 32.8667 15.4612 33.7783 17.0745Z" fill="url(#paint28_linear_281_1449)"/>
<path d="M18.1874 37.8312L18.3766 37.0292C19.0649 37.1933 19.8029 37.1995 20.5719 37.054L20.7269 37.8622C19.8432 38.0325 18.9905 38.0201 18.1874 37.8312ZM15.9115 36.6607C15.2914 36.1188 14.786 35.4314 14.4108 34.6139L15.1611 34.2733C15.4867 34.9824 15.9208 35.5769 16.4541 36.0414L15.9115 36.6607ZM23.0772 37.0075L22.6866 36.2829C23.3315 35.9361 23.9609 35.4902 24.5532 34.9638L25.102 35.58C24.4602 36.1498 23.7811 36.6298 23.0803 37.0075H23.0772ZM13.7472 32.2048C13.648 31.4152 13.6449 30.5822 13.7379 29.7306L14.5565 29.8204C14.4697 30.61 14.4728 31.3749 14.5627 32.1026L13.7472 32.2048ZM26.7702 33.7716L26.1159 33.2731C26.5748 32.6693 26.9903 32.0128 27.3469 31.3192L27.3531 31.3068L28.088 31.6815L28.0787 31.6969C27.7004 32.4308 27.2601 33.1276 26.7702 33.7685V33.7716ZM15.034 27.5723L14.2464 27.3277C14.4883 26.5566 14.8015 25.7949 15.1798 25.061L15.9115 25.4388C15.5549 26.1324 15.2604 26.8477 15.034 27.5723ZM29.0151 29.4179L28.2275 29.1732C28.2523 29.0927 28.2771 29.0122 28.2988 28.9317C28.4911 28.2629 28.6275 27.5878 28.6988 26.9251L29.5174 27.0118C29.4399 27.7241 29.2973 28.4455 29.0895 29.1609C29.0647 29.2476 29.0399 29.3312 29.012 29.4179H29.0151ZM17.1425 23.4818L16.4882 22.9832C16.9968 22.3175 17.5549 21.7074 18.1564 21.1748L18.7053 21.7879C18.144 22.2865 17.62 22.8563 17.1456 23.4787L17.1425 23.4818ZM28.6926 24.6399C28.5934 23.8503 28.3919 23.1195 28.0942 22.4723L28.8415 22.1286C29.1763 22.8532 29.3996 23.6645 29.5081 24.5377L28.6895 24.6399H28.6926ZM20.5688 20.4719L20.175 19.7473C20.9502 19.3262 21.7439 19.0382 22.5253 18.8896L22.6804 19.6978C21.9796 19.8309 21.2695 20.0941 20.5688 20.4719ZM26.8012 20.7041C26.5283 20.4657 26.2276 20.2613 25.9082 20.0972C25.5826 19.93 25.2322 19.7999 24.8757 19.7163L25.0648 18.9174C25.4834 19.0165 25.902 19.1682 26.2865 19.3664C26.6648 19.5615 27.0213 19.803 27.3438 20.0848L26.8043 20.7041H26.8012Z" fill="#F4F4F4"/>
<path d="M26.7703 31.0247C24.6866 35.0595 20.696 37.1435 17.8558 35.6788C15.0186 34.2172 14.4047 29.7613 16.4884 25.7264C18.572 21.6916 22.5626 19.6076 25.4029 21.0692C28.24 22.5308 28.854 26.9867 26.7703 31.0216V31.0247Z" fill="url(#paint29_radial_281_1449)"/>
<path d="M26.7704 31.0251C24.8107 34.8184 21.1674 36.8869 18.3799 35.9053C21.0961 36.5215 24.4542 34.4747 26.3084 30.892C28.3921 26.8571 27.7812 22.4012 24.9441 20.9365C24.7735 20.8498 24.5999 20.7724 24.4201 20.7104C24.7611 20.7879 25.0898 20.9055 25.4092 21.0697C28.2463 22.5312 28.8572 26.9872 26.7735 31.022L26.7704 31.0251Z" fill="url(#paint30_radial_281_1449)"/>
<path d="M35.5948 18.3881L33.7747 17.0752C32.8631 15.4588 31.5887 14.1644 29.9702 13.3315C29.8585 13.2726 29.7407 13.2169 29.626 13.1642C30.0167 13.3129 30.4012 13.4863 30.7794 13.6783C32.8476 14.7435 34.4662 16.3816 35.5948 18.3881Z" fill="url(#paint31_linear_281_1449)"/>
<path d="M35.3651 34.8771L33.1636 33.5859C34.5403 30.7401 35.2814 27.8108 35.4209 25.0734L37.4767 26.4328C37.4146 29.195 36.7294 32.0964 35.3651 34.8771Z" fill="url(#paint32_linear_281_1449)"/>
<path d="M29.158 42.3901C26.9038 44.0375 24.4015 45.0779 21.9054 45.3969L19.9551 44.7528C22.3209 44.3967 24.7457 43.2633 26.9658 41.4921L29.158 42.3901Z" fill="url(#paint33_linear_281_1449)"/>
<path fill-rule="evenodd" clip-rule="evenodd" d="M25.9304 13.488C26.2342 13.5685 26.3862 13.999 26.2683 14.4418C26.1908 14.7328 26.011 14.962 25.8218 15.1323C25.335 15.572 25.0529 15.7733 24.594 16.3338C24.4668 15.6742 24.3335 15.2995 24.1133 14.6802C24.0389 14.4758 24.011 14.1352 24.0823 13.8627C24.2002 13.4168 24.5443 13.1195 24.8482 13.2031C25.1149 13.2744 25.2637 13.6088 25.2172 13.9897C25.366 13.6367 25.6637 13.4168 25.9273 13.488H25.9304Z" fill="url(#paint34_radial_281_1449)"/>
<path fill-rule="evenodd" clip-rule="evenodd" d="M29.1332 37.8499C28.7735 38.1998 28.2371 38.24 27.9394 37.9366C27.7441 37.7384 27.7038 37.4349 27.7255 37.1408C27.7751 36.379 27.8619 35.9579 27.7782 35.1868C28.5038 35.2581 28.972 35.224 29.7471 35.1621C30.0045 35.1435 30.3425 35.224 30.5254 35.4098C30.82 35.7132 30.7704 36.2459 30.4107 36.5989C30.0944 36.9054 29.6479 36.9736 29.341 36.7847C29.5239 37.0943 29.4464 37.5402 29.1332 37.8499Z" fill="url(#paint35_radial_281_1449)"/>
<path fill-rule="evenodd" clip-rule="evenodd" d="M9.54616 34.6635C9.64228 35.0381 9.98956 35.2023 10.3182 35.0257C10.5322 34.9081 10.6872 34.6696 10.7957 34.4219C11.0748 33.7871 11.1957 33.4186 11.5709 32.8086C11.05 32.6909 10.7461 32.5485 10.2469 32.3132C10.0795 32.2326 9.81902 32.2203 9.61748 32.3286C9.2888 32.5051 9.10276 32.9572 9.20198 33.3319C9.2857 33.6602 9.56166 33.8243 9.85003 33.7407C9.59577 33.9512 9.46554 34.3352 9.54926 34.6635H9.54616Z" fill="url(#paint36_radial_281_1449)"/>
<path fill-rule="evenodd" clip-rule="evenodd" d="M32.2177 21.1815C32.7758 21.3487 33.3339 21.4601 33.8983 21.4973C33.5851 21.9153 33.3153 22.4201 33.0766 22.9929C32.5526 22.77 31.9913 22.674 31.396 22.6771C31.7433 22.2405 32.0192 21.7419 32.2177 21.1815Z" fill="url(#paint37_radial_281_1449)"/>
<path fill-rule="evenodd" clip-rule="evenodd" d="M13.7035 20.2494C14.2833 20.1967 14.8446 20.0915 15.381 19.9149C15.2476 20.4197 15.1856 20.9895 15.1794 21.6088C14.612 21.5964 14.0539 21.7202 13.502 21.9432C13.6601 21.4075 13.7283 20.8439 13.7035 20.2494Z" fill="url(#paint38_radial_281_1449)"/>
<path fill-rule="evenodd" clip-rule="evenodd" d="M15.9214 41.4302C16.3989 41.0957 16.833 40.7304 17.2113 40.3123C17.3446 40.8171 17.5741 41.3404 17.8779 41.8854C17.3787 42.1548 16.9539 42.5387 16.588 43.0032C16.4609 42.4613 16.2377 41.9349 15.9245 41.4302H15.9214Z" fill="url(#paint39_radial_281_1449)"/>
<path d="M33.7784 17.0743C33.7784 17.0743 33.8435 17.195 33.9675 17.4211C34.0295 17.5357 34.0946 17.6781 34.1783 17.8453C34.2218 17.9289 34.259 18.0218 34.3024 18.1209C34.3427 18.22 34.3923 18.3222 34.4357 18.4337C34.6186 18.8765 34.8109 19.4277 34.9783 20.0749C35.1489 20.722 35.2915 21.4652 35.3814 22.2827C35.4682 23.1002 35.4961 23.9951 35.4589 24.9365C35.4589 25.0541 35.4465 25.1749 35.4372 25.2926C35.4279 25.4102 35.4186 25.531 35.4093 25.6518C35.3907 25.8933 35.3752 26.1379 35.338 26.3825C35.307 26.6272 35.2729 26.878 35.2419 27.1288C35.1985 27.3765 35.152 27.6274 35.1055 27.8813C35.0807 28.0082 35.062 28.1352 35.0341 28.2622C35.0031 28.3891 34.9752 28.5161 34.9442 28.643C34.9163 28.77 34.8853 28.897 34.8543 29.027C34.8233 29.154 34.7985 29.284 34.7582 29.411C34.6838 29.6649 34.6124 29.9219 34.538 30.1789L34.4822 30.3709L34.4171 30.5629C34.3737 30.6899 34.3303 30.8168 34.2869 30.9469C34.1225 31.4609 33.9086 31.9657 33.7101 32.4735C33.6047 32.7243 33.4869 32.972 33.3753 33.2229L33.2047 33.5975L33.0218 33.966L32.9288 34.1487C32.8978 34.2138 32.8636 34.2695 32.8295 34.3314L32.6311 34.6906L32.4327 35.0498C32.3644 35.1675 32.3055 35.2914 32.228 35.4059C31.9365 35.8673 31.6637 36.3411 31.3443 36.7808C30.7459 37.6788 30.0606 38.4994 29.3785 39.2673C29.1986 39.4531 29.025 39.6389 28.8482 39.8216C28.7583 39.9114 28.6777 40.0074 28.5847 40.091C28.4948 40.1777 28.4017 40.2613 28.3118 40.348C28.1289 40.5184 27.9552 40.6887 27.7723 40.8497C27.5863 41.0045 27.4033 41.1593 27.2235 41.3111C26.501 41.918 25.763 42.4258 25.0592 42.8501C24.3522 43.2774 23.6763 43.6149 23.0592 43.8719C22.4422 44.129 21.8872 44.3147 21.4221 44.4386C21.3073 44.4727 21.1957 44.5005 21.0934 44.5253C20.988 44.5501 20.8918 44.5749 20.8019 44.5965C20.619 44.6337 20.4639 44.6678 20.3368 44.6894C20.0825 44.7328 19.9492 44.7545 19.9492 44.7545C19.9492 44.7545 20.0825 44.7297 20.3368 44.6863C20.4639 44.6647 20.619 44.6275 20.8019 44.5872C20.8918 44.5656 20.988 44.5408 21.0934 44.5129C21.1957 44.4882 21.3073 44.4603 21.4221 44.4231C21.8841 44.2931 22.436 44.1042 23.0499 43.841C23.6639 43.5778 24.3367 43.234 25.0406 42.8098C25.7444 42.3825 26.4762 41.8747 27.1956 41.2677C27.3754 41.116 27.5583 40.9612 27.7413 40.8032C27.9211 40.6422 28.0948 40.4719 28.2777 40.3047C28.3676 40.2211 28.4576 40.1344 28.5475 40.0477C28.6405 39.9641 28.7211 39.8681 28.811 39.7783C28.9847 39.5956 29.1583 39.4098 29.335 39.224C30.0141 38.453 30.6932 37.6355 31.2885 36.7375C31.6048 36.3008 31.8745 35.8302 32.1629 35.3688C32.2373 35.2542 32.2993 35.1303 32.3644 35.0127L32.5629 34.6535L32.7613 34.2943C32.7923 34.2354 32.8295 34.1735 32.8574 34.1147L32.9474 33.9289L33.1303 33.5635L33.3008 33.1888C33.4125 32.9411 33.5303 32.6933 33.6388 32.4425C33.8373 31.9347 34.0543 31.4361 34.2187 30.9221C34.2621 30.7952 34.3055 30.6682 34.3489 30.5412L34.414 30.3523L34.4698 30.1604C34.5442 29.9033 34.6186 29.6494 34.69 29.3955C34.7303 29.2685 34.7551 29.1416 34.7861 29.0146C34.8171 28.8877 34.845 28.7576 34.876 28.6338C34.907 28.5068 34.9349 28.3798 34.9659 28.2529C34.9938 28.1259 35.0124 27.999 35.0372 27.8751C35.0838 27.6212 35.1334 27.3735 35.1737 27.1226C35.2078 26.8718 35.2388 26.6272 35.2729 26.3825C35.3101 26.1379 35.3256 25.8933 35.3442 25.6518C35.3535 25.531 35.3628 25.4102 35.3721 25.2926C35.3814 25.1718 35.3907 25.0572 35.3938 24.9396C35.4372 24.0013 35.4093 23.1095 35.3256 22.292C35.2388 21.4745 35.1024 20.7344 34.938 20.0872C34.7737 19.4401 34.5876 18.8858 34.4109 18.443C34.3675 18.3315 34.321 18.2293 34.2807 18.1302C34.2373 18.0311 34.2001 17.9382 34.1597 17.8546C34.0791 17.6874 34.014 17.5419 33.952 17.4304C33.8311 17.2012 33.766 17.0836 33.766 17.0836L33.7784 17.0743Z" fill="white"/>
<path d="M27.4124 23.029C27.3442 23.1653 27.2791 23.3015 27.2078 23.4347C25.6791 26.3919 23.5799 28.8072 21.2017 30.5413C18.9475 32.1887 16.4452 33.2291 13.9492 33.548C11.6205 33.8453 9.2981 33.514 7.18652 32.4642C8.69967 33.0278 10.3337 33.1548 11.9988 32.904C14.3647 32.5479 16.7894 31.4145 19.0095 29.6433C21.2947 27.8256 23.3598 25.336 24.9163 22.323C25.0156 22.1279 25.1148 21.9328 25.2109 21.7347C26.5876 18.8889 27.3287 15.9596 27.4682 13.2222C27.6264 10.2092 27.062 7.42234 25.8218 5.22688C24.9101 3.61047 23.6358 2.31611 22.0172 1.48313C21.9056 1.4243 21.7877 1.36856 21.673 1.31592C22.0637 1.46455 22.4482 1.63796 22.8265 1.82995C24.8946 2.89517 26.5132 4.53325 27.6419 6.53982C28.9411 8.84366 29.5891 11.6337 29.5271 14.5847C29.4651 17.3468 28.7798 20.2483 27.4155 23.029H27.4124Z" fill="url(#paint40_radial_281_1449)"/>
<path d="M25.211 21.7383C25.118 21.9334 25.0187 22.1316 24.9164 22.3267C23.3599 25.3396 21.2948 27.8293 19.0096 29.6469C16.7895 31.4151 14.3616 32.5484 11.9958 32.9076C9.97103 33.2142 7.99278 32.9572 6.22538 32.0468C5.79129 31.8238 5.38199 31.5668 4.99751 31.2788C3.38824 30.0743 2.21927 28.3371 1.51852 26.2686C0.755743 23.9988 0.551096 21.3389 0.947986 18.5489C1.27976 16.1862 2.04253 13.7306 3.25801 11.3432C3.28282 11.2967 3.30452 11.2503 3.33243 11.2007C4.69674 8.56244 6.44863 6.32672 8.39898 4.58955C10.2718 2.9205 12.3245 1.71594 14.3833 1.06256C16.6965 0.328679 19.022 0.29152 21.1057 1.07805C21.4157 1.19572 21.7227 1.32887 22.0235 1.48679C23.642 2.31977 24.9164 3.61723 25.828 5.23054C27.0683 7.426 27.6326 10.2129 27.4745 13.2259C27.3319 15.9632 26.5908 18.8926 25.2172 21.7383H25.211Z" fill="url(#paint41_radial_281_1449)"/>
<path d="M20.767 20.1806C17.8927 25.7451 12.3858 28.6218 8.46963 26.6029C4.55344 24.587 3.71005 18.4372 6.5844 12.8727C9.45876 7.30817 14.9656 4.43146 18.8818 6.45042C22.798 8.46938 23.6414 14.6161 20.767 20.1806Z" fill="url(#paint42_radial_281_1449)"/>
<path d="M14.0917 4.89286C12.5599 5.34186 11.0282 6.2089 9.62666 7.41965L8.39258 4.58939C10.2654 2.92035 12.3181 1.71578 14.3769 1.06241L14.0917 4.89286Z" fill="url(#paint43_linear_281_1449)"/>
<path d="M3.95854 17.9734L0.947754 18.5524C1.27953 16.1898 2.0423 13.7342 3.25778 11.3467L5.65462 12.5947C4.75542 14.3783 4.19419 16.2145 3.96164 17.9765L3.95854 17.9734Z" fill="url(#paint44_linear_281_1449)"/>
<path d="M7.19936 27.4323L5.00096 31.2751C3.3917 30.0706 2.22273 28.3334 1.52197 26.2649L4.42733 23.639C4.97926 25.2306 5.91257 26.5529 7.19936 27.4354V27.4323Z" fill="url(#paint45_linear_281_1449)"/>
<path d="M19.0128 29.6443C16.7927 31.4124 14.3649 32.5457 11.999 32.9049L12.4114 28.449C14.1509 28.1362 15.9245 27.263 17.5431 25.9377L19.0128 29.6443Z" fill="url(#paint46_linear_281_1449)"/>
<path d="M25.211 21.7387L21.9614 20.2028C22.9568 18.1343 23.4963 16.0069 23.6048 14.0097L27.4714 13.2262C27.3287 15.9636 26.5877 18.8929 25.2141 21.7387H25.211Z" fill="url(#paint47_linear_281_1449)"/>
<path d="M25.8218 5.23068L22.4451 8.16003C21.7661 6.91211 20.7987 5.90882 19.5584 5.27093C19.4437 5.2121 19.3258 5.15636 19.208 5.10372L21.0994 1.07819C21.4095 1.19586 21.7165 1.32901 22.0172 1.48693C23.6358 2.31991 24.9102 3.61737 25.8218 5.23068Z" fill="url(#paint48_linear_281_1449)"/>
<path d="M10.2343 25.9829L10.4235 25.1809C11.1118 25.345 11.8498 25.3512 12.6188 25.2056L12.7738 26.0138C11.8901 26.1842 11.0374 26.1718 10.2343 25.9829ZM7.95839 24.8155C7.33825 24.2736 6.83284 23.5861 6.45765 22.7686L7.20802 22.428C7.5336 23.1371 7.9677 23.7317 8.50102 24.1962L7.95839 24.8155ZM15.1241 25.1592L14.7334 24.4346C15.3784 24.0878 16.0078 23.6419 16.6001 23.1155L17.1489 23.7317C16.507 24.3014 15.828 24.7814 15.1272 25.1592H15.1241ZM5.7941 20.3595C5.69488 19.5699 5.69178 18.7369 5.7848 17.8854L6.60339 17.9752C6.51657 18.7648 6.51967 19.5296 6.60959 20.2573L5.7941 20.3595ZM18.814 21.9233L18.1597 21.4247C18.6186 20.8209 19.0341 20.1644 19.3907 19.4708L19.3969 19.4584L20.1318 19.8331L20.1225 19.8486C19.7442 20.5825 19.3039 21.2792 18.814 21.9202V21.9233ZM7.07779 15.724L6.29022 15.4793C6.53207 14.7083 6.84524 13.9465 7.22353 13.2126L7.95529 13.5904C7.59871 14.281 7.30415 14.9994 7.07779 15.724ZM21.062 17.5695L20.2744 17.3249C20.2992 17.2444 20.324 17.1639 20.3457 17.0834C20.5379 16.4145 20.6744 15.7394 20.7457 15.0768L21.5643 15.1635C21.4868 15.8757 21.3441 16.5972 21.1364 17.3125C21.1116 17.3992 21.0868 17.4828 21.0589 17.5695H21.062ZM9.18937 11.6334L8.53512 11.1349C9.04364 10.4691 9.60177 9.85907 10.2033 9.32646L10.7521 9.93958C10.1909 10.4381 9.66688 11.0079 9.19247 11.6303L9.18937 11.6334ZM20.7395 12.7915C20.6403 12.0019 20.4387 11.2711 20.1411 10.6239L20.8914 10.2802C21.2263 11.0048 21.4496 11.8161 21.5581 12.6893L20.7395 12.7915ZM12.6157 8.62354L12.2219 7.89895C12.997 7.47781 13.7908 7.18983 14.5722 7.0412L14.7272 7.8494C14.0265 7.98255 13.3164 8.24576 12.6157 8.62354ZM18.8481 8.85578C18.5752 8.61735 18.2744 8.41298 17.9551 8.24886C17.6295 8.08164 17.2791 7.95159 16.9225 7.86798L17.1117 7.06597C17.5303 7.16506 17.9489 7.31679 18.3302 7.51497C18.7085 7.71006 19.0651 7.95159 19.3876 8.23338L18.8481 8.85269V8.85578Z" fill="#F4F4F4"/>
<path d="M18.8172 19.1766C16.7335 23.2114 12.7429 25.2954 9.90264 23.8338C7.0655 22.3722 6.45156 17.9163 8.53523 13.8815C10.6189 9.84665 14.6095 7.76266 17.4498 9.22424C20.2869 10.6858 20.9008 15.1418 18.8172 19.1766Z" fill="url(#paint49_radial_281_1449)"/>
<path d="M18.8173 19.1779C16.8576 22.9712 13.2143 25.0397 10.4268 24.0581C13.143 24.6743 16.501 22.6275 18.3553 19.0448C20.4389 15.0099 19.8281 10.554 16.9909 9.0893C16.8204 9.0026 16.6468 8.92518 16.4669 8.86325C16.808 8.94066 17.1367 9.06143 17.4561 9.22245C20.2932 10.684 20.904 15.14 18.8204 19.1748L18.8173 19.1779Z" fill="url(#paint50_radial_281_1449)"/>
<path d="M27.6417 6.53982L25.8216 5.22688C24.91 3.61047 23.6356 2.31611 22.017 1.48313C21.9054 1.4243 21.7876 1.36856 21.6729 1.31592C22.0635 1.46455 22.448 1.63796 22.8263 1.82995C24.8945 2.89517 26.5131 4.53325 27.6417 6.53982Z" fill="url(#paint51_linear_281_1449)"/>
<path d="M27.4119 23.0299L25.2104 21.7387C26.5872 18.8929 27.3282 15.9636 27.4678 13.2262L29.5235 14.5856C29.4615 17.3478 28.7763 20.2492 27.4119 23.0299Z" fill="url(#paint52_linear_281_1449)"/>
<path d="M21.2053 30.5429C18.9511 32.1902 16.4489 33.2307 13.9528 33.5496L12.0024 32.9055C14.3683 32.5494 16.793 31.4161 19.0131 29.6449L21.2053 30.5429Z" fill="url(#paint53_linear_281_1449)"/>
<path fill-rule="evenodd" clip-rule="evenodd" d="M17.9736 1.64408C18.2775 1.72459 18.4295 2.15501 18.3116 2.59782C18.2341 2.8889 18.0543 3.11804 17.8682 3.28836C17.3814 3.72807 17.0993 3.92934 16.6403 4.48982C16.5132 3.83025 16.3799 3.45557 16.1597 2.83626C16.0853 2.63188 16.0574 2.29126 16.1287 2.01877C16.2466 1.57596 16.5907 1.27559 16.8946 1.3592C17.1613 1.43042 17.3101 1.76485 17.2636 2.14572C17.4124 1.79272 17.7101 1.57286 17.9736 1.64408Z" fill="url(#paint54_radial_281_1449)"/>
<path fill-rule="evenodd" clip-rule="evenodd" d="M21.1772 26.0016C20.8175 26.3515 20.2811 26.3917 19.9834 26.0883C19.788 25.8901 19.7477 25.5866 19.7694 25.2924C19.819 24.5307 19.9059 24.1096 19.8221 23.3385C20.5477 23.4097 21.0159 23.3757 21.7911 23.3137C22.0485 23.2952 22.3864 23.3757 22.5694 23.5615C22.8639 23.8649 22.8143 24.3975 22.4546 24.7505C22.1384 25.0571 21.6919 25.1252 21.3849 24.9363C21.5678 25.246 21.4903 25.6919 21.1772 25.9985V26.0016Z" fill="url(#paint55_radial_281_1449)"/>
<path fill-rule="evenodd" clip-rule="evenodd" d="M1.59255 22.8185C1.68867 23.1932 2.03595 23.3573 2.36462 23.1808C2.57857 23.0631 2.7336 22.8247 2.84213 22.5769C3.12119 21.9422 3.24212 21.5706 3.61731 20.9636C3.09639 20.846 2.79252 20.7035 2.2933 20.4682C2.12587 20.3877 1.86541 20.3753 1.66386 20.4837C1.33519 20.6602 1.14915 21.1092 1.24837 21.487C1.33209 21.8152 1.60805 21.9793 1.89641 21.8957C1.64216 22.1063 1.51193 22.4902 1.59565 22.8185H1.59255Z" fill="url(#paint56_radial_281_1449)"/>
<path fill-rule="evenodd" clip-rule="evenodd" d="M24.265 9.33426C24.8232 9.50147 25.3813 9.61295 25.9456 9.65011C25.6325 10.0681 25.3627 10.5729 25.1239 11.1457C24.5999 10.9228 24.0387 10.8268 23.4434 10.8299C23.7906 10.3933 24.0666 9.89474 24.265 9.33426Z" fill="url(#paint57_radial_281_1449)"/>
<path fill-rule="evenodd" clip-rule="evenodd" d="M5.74793 8.40441C6.32776 8.35176 6.88899 8.24648 7.42541 8.06998C7.29208 8.57162 7.23007 9.14448 7.22387 9.7638C6.65644 9.75141 6.09831 9.87527 5.54639 10.0982C5.70452 9.56252 5.77274 8.99895 5.74793 8.40441Z" fill="url(#paint58_radial_281_1449)"/>
<path fill-rule="evenodd" clip-rule="evenodd" d="M7.96826 29.5818C8.44577 29.2474 8.87987 28.882 9.25815 28.464C9.39148 28.9687 9.61784 29.492 9.92481 30.037C9.42559 30.3064 9.0008 30.6904 8.63491 31.1549C8.50778 30.613 8.28453 30.0866 7.97136 29.5818H7.96826Z" fill="url(#paint59_radial_281_1449)"/>
<path d="M25.8221 5.23044C25.8221 5.23044 25.8872 5.3512 26.0113 5.57725C26.0733 5.69183 26.1384 5.83427 26.2221 6.00148C26.2655 6.08509 26.3027 6.17799 26.3462 6.27708C26.3865 6.37617 26.4361 6.47835 26.4795 6.58983C26.6624 7.03264 26.8547 7.58383 27.0221 8.23101C27.1926 8.87819 27.3353 9.62136 27.4252 10.4389C27.512 11.2564 27.5399 12.1513 27.5027 13.0926C27.5027 13.2103 27.4903 13.331 27.481 13.4487C27.4717 13.5664 27.4624 13.6872 27.4531 13.8079C27.4345 14.0495 27.419 14.2941 27.3818 14.5387C27.3508 14.7833 27.3167 15.0342 27.2857 15.285C27.2454 15.5327 27.1957 15.7835 27.1523 16.0374C27.1275 16.1644 27.1089 16.2914 27.081 16.4183C27.05 16.5453 27.0221 16.6722 26.9911 16.7992C26.9632 16.9262 26.9322 17.0531 26.9012 17.1832C26.8702 17.3101 26.8454 17.4402 26.8051 17.5671C26.7306 17.8211 26.6593 18.0781 26.5849 18.3351L26.5291 18.5271L26.464 18.7191C26.4206 18.846 26.3772 18.973 26.3337 19.103C26.1694 19.6171 25.9555 20.1218 25.757 20.6296C25.6516 20.8805 25.5338 21.1282 25.4221 21.379L25.2516 21.7537L25.0687 22.1222L24.9756 22.3049C24.9446 22.3699 24.9105 22.4257 24.8764 22.4876L24.678 22.8468L24.4795 23.206C24.4113 23.3237 24.3524 23.4475 24.2749 23.5621C23.9834 24.0235 23.7106 24.4973 23.3912 24.937C22.7927 25.835 22.1075 26.6556 21.4253 27.4235C21.2455 27.6093 21.0719 27.7951 20.8951 27.9778C20.8052 28.0676 20.7246 28.1636 20.6316 28.2472C20.5416 28.3339 20.4486 28.4175 20.3587 28.5042C20.1758 28.6745 20.0021 28.8448 19.8192 29.0058C19.6331 29.1607 19.4502 29.3155 19.2703 29.4672C18.5479 30.0742 17.8099 30.582 17.1061 31.0062C16.3991 31.4336 15.7231 31.7711 15.1061 32.0281C14.4891 32.2851 13.934 32.4709 13.4689 32.5948C13.3542 32.6288 13.2426 32.6567 13.1403 32.6815C13.0348 32.7062 12.9387 32.731 12.8488 32.7527C12.6658 32.7899 12.5108 32.8239 12.3837 32.8456C12.1294 32.8889 11.9961 32.9106 11.9961 32.9106C11.9961 32.9106 12.1294 32.8858 12.3837 32.8425C12.5108 32.8208 12.6658 32.7837 12.8488 32.7434C12.9387 32.7217 13.0348 32.697 13.1403 32.6691C13.2426 32.6443 13.3542 32.6164 13.4689 32.5793C13.9309 32.4492 14.4829 32.2603 15.0968 31.9971C15.7107 31.7339 16.3836 31.3902 17.0874 30.966C17.7913 30.5387 18.5231 30.0308 19.2424 29.4239C19.4223 29.2722 19.6052 29.1173 19.7882 28.9594C19.968 28.7984 20.1416 28.6281 20.3246 28.4609C20.4145 28.3772 20.5044 28.2905 20.5943 28.2038C20.6874 28.1202 20.768 28.0242 20.8579 27.9344C21.0315 27.7517 21.2052 27.5659 21.3819 27.3802C22.061 26.6091 22.74 25.7916 23.3354 24.8936C23.6516 24.457 23.9214 23.9863 24.2098 23.5249C24.2842 23.4104 24.3462 23.2865 24.4113 23.1688L24.6098 22.8096L24.8082 22.4504C24.8392 22.3916 24.8764 22.3297 24.9043 22.2708L24.9942 22.085L25.1772 21.7196L25.3477 21.345C25.4593 21.0972 25.5772 20.8495 25.6857 20.5987C25.8841 20.0908 26.1012 19.5923 26.2655 19.0783C26.3089 18.9513 26.3524 18.8244 26.3958 18.6974L26.4609 18.5085L26.5167 18.3165C26.5911 18.0595 26.6655 17.8056 26.7368 17.5517C26.7771 17.4247 26.802 17.2977 26.833 17.1708C26.864 17.0438 26.8919 16.9138 26.9229 16.7899C26.9539 16.663 26.9818 16.536 27.0128 16.409C27.0407 16.2821 27.0593 16.1551 27.0841 16.0313C27.1306 15.7773 27.1802 15.5296 27.2205 15.2788C27.2547 15.028 27.2857 14.7833 27.3198 14.5387C27.357 14.2941 27.3725 14.0495 27.3911 13.8079C27.4004 13.6872 27.4097 13.5664 27.419 13.4487C27.4283 13.328 27.4376 13.2134 27.4407 13.0957C27.4841 12.1575 27.4562 11.2656 27.3725 10.4481C27.2857 9.63066 27.1492 8.89058 26.9849 8.24339C26.8206 7.59621 26.6345 7.04193 26.4578 6.59912C26.4144 6.48764 26.3679 6.38546 26.3275 6.28637C26.2841 6.18728 26.2469 6.09438 26.2066 6.01077C26.126 5.84356 26.0609 5.69802 25.9989 5.58654C25.8779 5.36049 25.8128 5.23973 25.8128 5.23973L25.8221 5.23044Z" fill="white"/>
<defs>
<radialGradient id="paint0_radial_281_1449" cx="0" cy="0" r="1" gradientUnits="userSpaceOnUse" gradientTransform="translate(50.0706 26.346) rotate(16.0796) scale(13.5146 13.4993)">
<stop stop-color="#F58926"/>
<stop offset="0.22" stop-color="#F28625"/>
<stop offset="0.36" stop-color="#EA7D24"/>
<stop offset="0.49" stop-color="#DD6E22"/>
<stop offset="0.61" stop-color="#CA581F"/>
<stop offset="0.71" stop-color="#B23C1C"/>
<stop offset="0.74" stop-color="#AB341B"/>
</radialGradient>
<radialGradient id="paint1_radial_281_1449" cx="0" cy="0" r="1" gradientUnits="userSpaceOnUse" gradientTransform="translate(51.5857 19.5855) rotate(16.0796) scale(49.8976 49.8412)">
<stop stop-color="#F58926"/>
<stop offset="0.22" stop-color="#F28625"/>
<stop offset="0.36" stop-color="#EA7D24"/>
<stop offset="0.49" stop-color="#DD6E22"/>
<stop offset="0.61" stop-color="#CA581F"/>
<stop offset="0.71" stop-color="#B23C1C"/>
<stop offset="0.74" stop-color="#AB341B"/>
</radialGradient>
<radialGradient id="paint2_radial_281_1449" cx="0" cy="0" r="1" gradientUnits="userSpaceOnUse" gradientTransform="translate(37.5452 38.7511) rotate(16.0796) scale(30.2722 30.2379)">
<stop stop-color="#F58926"/>
<stop offset="0.22" stop-color="#F28625"/>
<stop offset="0.36" stop-color="#EA7D24"/>
<stop offset="0.49" stop-color="#DD6E22"/>
<stop offset="0.61" stop-color="#CA581F"/>
<stop offset="0.71" stop-color="#B23C1C"/>
<stop offset="0.74" stop-color="#AB341B"/>
</radialGradient>
<linearGradient id="paint3_linear_281_1449" x1="41.5345" y1="15.0667" x2="41.2839" y2="8.91251" gradientUnits="userSpaceOnUse">
<stop stop-color="white"/>
<stop offset="0.29" stop-color="#EAEAEA"/>
<stop offset="1" stop-color="white"/>
</linearGradient>
<linearGradient id="paint4_linear_281_1449" x1="33.3806" y1="26.1723" x2="33.0934" y2="19.0729" gradientUnits="userSpaceOnUse">
<stop stop-color="white"/>
<stop offset="0.29" stop-color="#EAEAEA"/>
<stop offset="1" stop-color="white"/>
</linearGradient>
<linearGradient id="paint5_linear_281_1449" x1="34.5052" y1="39.0182" x2="34.1958" y2="31.3709" gradientUnits="userSpaceOnUse">
<stop stop-color="white"/>
<stop offset="0.29" stop-color="#EAEAEA"/>
<stop offset="1" stop-color="white"/>
</linearGradient>
<linearGradient id="paint6_linear_281_1449" x1="45.5289" y1="40.4834" x2="45.2548" y2="33.7519" gradientUnits="userSpaceOnUse">
<stop stop-color="white"/>
<stop offset="0.29" stop-color="#EAEAEA"/>
<stop offset="1" stop-color="white"/>
</linearGradient>
<linearGradient id="paint7_linear_281_1449" x1="54.8883" y1="29.4746" x2="54.5431" y2="21.0692" gradientUnits="userSpaceOnUse">
<stop stop-color="white"/>
<stop offset="0.29" stop-color="#EAEAEA"/>
<stop offset="1" stop-color="white"/>
</linearGradient>
<linearGradient id="paint8_linear_281_1449" x1="52.6029" y1="15.8754" x2="52.3137" y2="8.74955" gradientUnits="userSpaceOnUse">
<stop stop-color="white"/>
<stop offset="0.29" stop-color="#EAEAEA"/>
<stop offset="1" stop-color="white"/>
</linearGradient>
<radialGradient id="paint9_radial_281_1449" cx="0" cy="0" r="1" gradientUnits="userSpaceOnUse" gradientTransform="translate(43.4599 22.8768) rotate(16.0796) scale(9.55229 9.54149)">
<stop stop-color="#F58926"/>
<stop offset="0.22" stop-color="#F28625"/>
<stop offset="0.36" stop-color="#EA7D24"/>
<stop offset="0.49" stop-color="#DD6E22"/>
<stop offset="0.61" stop-color="#CA581F"/>
<stop offset="0.71" stop-color="#B23C1C"/>
<stop offset="0.74" stop-color="#AB341B"/>
</radialGradient>
<radialGradient id="paint10_radial_281_1449" cx="0" cy="0" r="1" gradientUnits="userSpaceOnUse" gradientTransform="translate(44.2097 17.9139) rotate(16.0796) scale(8.29973 8.29035)">
<stop stop-color="#EA2224"/>
<stop offset="0.21" stop-color="#E72224"/>
<stop offset="0.36" stop-color="#DE2224"/>
<stop offset="0.49" stop-color="#CF2325"/>
<stop offset="0.6" stop-color="#B92526"/>
<stop offset="0.7" stop-color="#9D2727"/>
<stop offset="0.77" stop-color="#872929"/>
</radialGradient>
<linearGradient id="paint11_linear_281_1449" x1="51.1708" y1="10.6576" x2="58.072" y2="12.6522" gradientUnits="userSpaceOnUse">
<stop stop-color="#D5D5D5"/>
<stop offset="0.29" stop-color="#A8A8A8"/>
<stop offset="1" stop-color="#919191"/>
</linearGradient>
<linearGradient id="paint12_linear_281_1449" x1="56.1257" y1="25.4837" x2="58.9999" y2="26.3145" gradientUnits="userSpaceOnUse">
<stop stop-color="#D5D5D5"/>
<stop offset="0.29" stop-color="#A8A8A8"/>
<stop offset="1" stop-color="#919191"/>
</linearGradient>
<linearGradient id="paint13_linear_281_1449" x1="42.6565" y1="38.228" x2="50.5227" y2="40.5015" gradientUnits="userSpaceOnUse">
<stop stop-color="#D5D5D5"/>
<stop offset="0.29" stop-color="#A8A8A8"/>
<stop offset="1" stop-color="#919191"/>
</linearGradient>
<radialGradient id="paint14_radial_281_1449" cx="0" cy="0" r="1" gradientUnits="userSpaceOnUse" gradientTransform="translate(48.2392 10.8295) rotate(14.8311) scale(1.78213 2.61076)">
<stop stop-color="white"/>
<stop offset="1" stop-color="#BFBFBF"/>
</radialGradient>
<radialGradient id="paint15_radial_281_1449" cx="0" cy="0" r="1" gradientUnits="userSpaceOnUse" gradientTransform="translate(53.0935 31.9668) rotate(135.658) scale(2.84979 2.40444)">
<stop stop-color="white"/>
<stop offset="1" stop-color="#BFBFBF"/>
</radialGradient>
<radialGradient id="paint16_radial_281_1449" cx="0" cy="0" r="1" gradientUnits="userSpaceOnUse" gradientTransform="translate(36.2083 43.9563) rotate(75.3813) scale(2.19813 2.05398)">
<stop stop-color="white"/>
<stop offset="1" stop-color="#BFBFBF"/>
</radialGradient>
<radialGradient id="paint17_radial_281_1449" cx="0" cy="0" r="1" gradientUnits="userSpaceOnUse" gradientTransform="translate(57.5669 18.0065) rotate(64.6504) scale(1.7791 2.09222)">
<stop stop-color="white"/>
<stop offset="1" stop-color="#BFBFBF"/>
</radialGradient>
<radialGradient id="paint18_radial_281_1449" cx="0" cy="0" r="1" gradientUnits="userSpaceOnUse" gradientTransform="translate(38.303 16.8081) rotate(42.7118) scale(1.77995 2.09122)">
<stop stop-color="white"/>
<stop offset="1" stop-color="#BFBFBF"/>
</radialGradient>
<radialGradient id="paint19_radial_281_1449" cx="0" cy="0" r="1" gradientUnits="userSpaceOnUse" gradientTransform="translate(39.5957 38.0658) rotate(13.0431) scale(1.78092 2.09007)">
<stop stop-color="white"/>
<stop offset="1" stop-color="#BFBFBF"/>
</radialGradient>
<radialGradient id="paint20_radial_281_1449" cx="0" cy="0" r="1" gradientUnits="userSpaceOnUse" gradientTransform="translate(28.0574 30.4665) rotate(16.0796) scale(13.5146 13.4993)">
<stop stop-color="#EA2224"/>
<stop offset="0.21" stop-color="#E72224"/>
<stop offset="0.36" stop-color="#DE2224"/>
<stop offset="0.49" stop-color="#CF2325"/>
<stop offset="0.6" stop-color="#B92526"/>
<stop offset="0.7" stop-color="#9D2727"/>
<stop offset="0.77" stop-color="#872929"/>
</radialGradient>
<radialGradient id="paint21_radial_281_1449" cx="0" cy="0" r="1" gradientUnits="userSpaceOnUse" gradientTransform="translate(29.5724 23.7068) rotate(16.0796) scale(49.8976 49.8412)">
<stop stop-color="#EA2224"/>
<stop offset="0.21" stop-color="#E72224"/>
<stop offset="0.36" stop-color="#DE2224"/>
<stop offset="0.49" stop-color="#CF2325"/>
<stop offset="0.6" stop-color="#B92526"/>
<stop offset="0.7" stop-color="#9D2727"/>
<stop offset="0.77" stop-color="#872929"/>
</radialGradient>
<radialGradient id="paint22_radial_281_1449" cx="0" cy="0" r="1" gradientUnits="userSpaceOnUse" gradientTransform="translate(15.5295 42.8715) rotate(16.0796) scale(30.2722 30.2379)">
<stop stop-color="#872929"/>
<stop offset="0.03" stop-color="#952728"/>
<stop offset="0.11" stop-color="#B32526"/>
<stop offset="0.18" stop-color="#CB2425"/>
<stop offset="0.27" stop-color="#DC2224"/>
<stop offset="0.36" stop-color="#E62224"/>
<stop offset="0.47" stop-color="#EA2224"/>
<stop offset="0.62" stop-color="#E72224"/>
<stop offset="0.72" stop-color="#DE2224"/>
<stop offset="0.8" stop-color="#CF2325"/>
<stop offset="0.88" stop-color="#B92526"/>
<stop offset="0.95" stop-color="#9E2727"/>
<stop offset="1" stop-color="#872929"/>
</radialGradient>
<linearGradient id="paint23_linear_281_1449" x1="19.5213" y1="19.1881" x2="19.2707" y2="13.0339" gradientUnits="userSpaceOnUse">
<stop stop-color="white"/>
<stop offset="0.29" stop-color="#EAEAEA"/>
<stop offset="1" stop-color="white"/>
</linearGradient>
<linearGradient id="paint24_linear_281_1449" x1="11.3673" y1="30.2939" x2="11.0802" y2="23.1945" gradientUnits="userSpaceOnUse">
<stop stop-color="white"/>
<stop offset="0.29" stop-color="#EAEAEA"/>
<stop offset="1" stop-color="white"/>
</linearGradient>
<linearGradient id="paint25_linear_281_1449" x1="12.4925" y1="43.1398" x2="12.1801" y2="35.4917" gradientUnits="userSpaceOnUse">
<stop stop-color="white"/>
<stop offset="0.29" stop-color="#EAEAEA"/>
<stop offset="1" stop-color="white"/>
</linearGradient>
<linearGradient id="paint26_linear_281_1449" x1="23.5157" y1="44.6058" x2="23.2416" y2="37.8744" gradientUnits="userSpaceOnUse">
<stop stop-color="white"/>
<stop offset="0.29" stop-color="#EAEAEA"/>
<stop offset="1" stop-color="white"/>
</linearGradient>
<linearGradient id="paint27_linear_281_1449" x1="32.872" y1="33.5953" x2="32.5298" y2="25.1908" gradientUnits="userSpaceOnUse">
<stop stop-color="white"/>
<stop offset="0.29" stop-color="#EAEAEA"/>
<stop offset="1" stop-color="white"/>
</linearGradient>
<linearGradient id="paint28_linear_281_1449" x1="30.59" y1="19.9967" x2="30.3008" y2="12.8709" gradientUnits="userSpaceOnUse">
<stop stop-color="white"/>
<stop offset="0.29" stop-color="#EAEAEA"/>
<stop offset="1" stop-color="white"/>
</linearGradient>
<radialGradient id="paint29_radial_281_1449" cx="0" cy="0" r="1" gradientUnits="userSpaceOnUse" gradientTransform="translate(21.4466 26.9981) rotate(16.0796) scale(9.55229 9.54149)">
<stop stop-color="#EA2224"/>
<stop offset="0.21" stop-color="#E72224"/>
<stop offset="0.36" stop-color="#DE2224"/>
<stop offset="0.49" stop-color="#CF2325"/>
<stop offset="0.6" stop-color="#B92526"/>
<stop offset="0.7" stop-color="#9D2727"/>
<stop offset="0.77" stop-color="#872929"/>
</radialGradient>
<radialGradient id="paint30_radial_281_1449" cx="0" cy="0" r="1" gradientUnits="userSpaceOnUse" gradientTransform="translate(22.197 22.0355) rotate(16.0796) scale(8.29973 8.29035)">
<stop stop-color="#EA2224"/>
<stop offset="0.21" stop-color="#E72224"/>
<stop offset="0.36" stop-color="#DE2224"/>
<stop offset="0.49" stop-color="#CF2325"/>
<stop offset="0.6" stop-color="#B92526"/>
<stop offset="0.7" stop-color="#9D2727"/>
<stop offset="0.77" stop-color="#872929"/>
</radialGradient>
<linearGradient id="paint31_linear_281_1449" x1="29.1576" y1="14.7792" x2="36.0587" y2="16.7738" gradientUnits="userSpaceOnUse">
<stop stop-color="#D5D5D5"/>
<stop offset="0.29" stop-color="#A8A8A8"/>
<stop offset="1" stop-color="#919191"/>
</linearGradient>
<linearGradient id="paint32_linear_281_1449" x1="34.1119" y1="29.6051" x2="36.9862" y2="30.4358" gradientUnits="userSpaceOnUse">
<stop stop-color="#D5D5D5"/>
<stop offset="0.29" stop-color="#A8A8A8"/>
<stop offset="1" stop-color="#919191"/>
</linearGradient>
<linearGradient id="paint33_linear_281_1449" x1="20.6438" y1="42.3507" x2="28.5099" y2="44.6242" gradientUnits="userSpaceOnUse">
<stop stop-color="#D5D5D5"/>
<stop offset="0.29" stop-color="#A8A8A8"/>
<stop offset="1" stop-color="#919191"/>
</linearGradient>
<radialGradient id="paint34_radial_281_1449" cx="0" cy="0" r="1" gradientUnits="userSpaceOnUse" gradientTransform="translate(26.1567 14.951) rotate(14.831) scale(1.78213 2.61076)">
<stop stop-color="white"/>
<stop offset="1" stop-color="#BFBFBF"/>
</radialGradient>
<radialGradient id="paint35_radial_281_1449" cx="0" cy="0" r="1" gradientUnits="userSpaceOnUse" gradientTransform="translate(31.0265 36.1241) rotate(135.658) scale(2.84979 2.40444)">
<stop stop-color="white"/>
<stop offset="1" stop-color="#BFBFBF"/>
</radialGradient>
<radialGradient id="paint36_radial_281_1449" cx="0" cy="0" r="1" gradientUnits="userSpaceOnUse" gradientTransform="translate(12.6993 42.7588) rotate(75.3813) scale(2.19813 2.05398)">
<stop stop-color="white"/>
<stop offset="1" stop-color="#BFBFBF"/>
</radialGradient>
<radialGradient id="paint37_radial_281_1449" cx="0" cy="0" r="1" gradientUnits="userSpaceOnUse" gradientTransform="translate(35.477 22.1422) rotate(64.6504) scale(1.7791 2.09222)">
<stop stop-color="white"/>
<stop offset="1" stop-color="#BFBFBF"/>
</radialGradient>
<radialGradient id="paint38_radial_281_1449" cx="0" cy="0" r="1" gradientUnits="userSpaceOnUse" gradientTransform="translate(16.2109 20.944) rotate(42.7118) scale(1.77995 2.09122)">
<stop stop-color="white"/>
<stop offset="1" stop-color="#BFBFBF"/>
</radialGradient>
<radialGradient id="paint39_radial_281_1449" cx="0" cy="0" r="1" gradientUnits="userSpaceOnUse" gradientTransform="translate(17.5072 42.2058) rotate(13.0431) scale(1.78092 2.09007)">
<stop stop-color="white"/>
<stop offset="1" stop-color="#BFBFBF"/>
</radialGradient>
<radialGradient id="paint40_radial_281_1449" cx="0" cy="0" r="1" gradientUnits="userSpaceOnUse" gradientTransform="translate(20.1049 18.6212) rotate(16.0796) scale(13.5146 13.4993)">
<stop stop-color="#29ABE2"/>
<stop offset="0.47" stop-color="#21639E"/>
<stop offset="0.77" stop-color="#1D3471"/>
</radialGradient>
<radialGradient id="paint41_radial_281_1449" cx="0" cy="0" r="1" gradientUnits="userSpaceOnUse" gradientTransform="translate(21.6169 11.8607) rotate(16.0796) scale(49.8976 49.8412)">
<stop stop-color="#29ABE2"/>
<stop offset="0.57" stop-color="#2863AF"/>
<stop offset="0.77" stop-color="#28499C"/>
</radialGradient>
<radialGradient id="paint42_radial_281_1449" cx="0" cy="0" r="1" gradientUnits="userSpaceOnUse" gradientTransform="translate(7.57657 31.0254) rotate(16.0796) scale(30.2722 30.2379)">
<stop stop-color="#29ABE2"/>
<stop offset="0.57" stop-color="#2863AF"/>
<stop offset="0.77" stop-color="#28499C"/>
</radialGradient>
<linearGradient id="paint43_linear_281_1449" x1="11.5697" y1="7.3401" x2="11.3191" y2="1.1859" gradientUnits="userSpaceOnUse">
<stop stop-color="white"/>
<stop offset="0.29" stop-color="#EAEAEA"/>
<stop offset="1" stop-color="white"/>
</linearGradient>
<linearGradient id="paint44_linear_281_1449" x1="3.41486" y1="18.4493" x2="3.12475" y2="11.349" gradientUnits="userSpaceOnUse">
<stop stop-color="white"/>
<stop offset="0.29" stop-color="#EAEAEA"/>
<stop offset="1" stop-color="white"/>
</linearGradient>
<linearGradient id="paint45_linear_281_1449" x1="4.54137" y1="31.2907" x2="4.22809" y2="23.6455" gradientUnits="userSpaceOnUse">
<stop stop-color="white"/>
<stop offset="0.29" stop-color="#EAEAEA"/>
<stop offset="1" stop-color="white"/>
</linearGradient>
<linearGradient id="paint46_linear_281_1449" x1="15.5646" y1="32.7579" x2="15.2896" y2="26.0294" gradientUnits="userSpaceOnUse">
<stop stop-color="white"/>
<stop offset="0.29" stop-color="#EAEAEA"/>
<stop offset="1" stop-color="white"/>
</linearGradient>
<linearGradient id="paint47_linear_281_1449" x1="24.9196" y1="21.7504" x2="24.5782" y2="13.3428" gradientUnits="userSpaceOnUse">
<stop stop-color="white"/>
<stop offset="0.29" stop-color="#EAEAEA"/>
<stop offset="1" stop-color="white"/>
</linearGradient>
<linearGradient id="paint48_linear_281_1449" x1="22.6342" y1="8.15115" x2="22.345" y2="1.02535" gradientUnits="userSpaceOnUse">
<stop stop-color="white"/>
<stop offset="0.29" stop-color="#EAEAEA"/>
<stop offset="1" stop-color="white"/>
</linearGradient>
<radialGradient id="paint49_radial_281_1449" cx="0" cy="0" r="1" gradientUnits="userSpaceOnUse" gradientTransform="translate(13.4942 15.1522) rotate(16.0796) scale(9.55229 9.54149)">
<stop stop-color="#29ABE2"/>
<stop offset="0.57" stop-color="#2863AF"/>
<stop offset="0.77" stop-color="#28499C"/>
</radialGradient>
<radialGradient id="paint50_radial_281_1449" cx="0" cy="0" r="1" gradientUnits="userSpaceOnUse" gradientTransform="translate(14.2415 10.1896) rotate(16.0796) scale(8.29973 8.29035)">
<stop stop-color="#29ABE2"/>
<stop offset="0.47" stop-color="#21639E"/>
<stop offset="0.77" stop-color="#1D3471"/>
</radialGradient>
<linearGradient id="paint51_linear_281_1449" x1="21.2051" y1="2.93312" x2="28.1063" y2="4.92769" gradientUnits="userSpaceOnUse">
<stop stop-color="#D5D5D5"/>
<stop offset="0.29" stop-color="#A8A8A8"/>
<stop offset="1" stop-color="#919191"/>
</linearGradient>
<linearGradient id="paint52_linear_281_1449" x1="26.1565" y1="17.7593" x2="29.0337" y2="18.5908" gradientUnits="userSpaceOnUse">
<stop stop-color="#D5D5D5"/>
<stop offset="0.29" stop-color="#A8A8A8"/>
<stop offset="1" stop-color="#919191"/>
</linearGradient>
<linearGradient id="paint53_linear_281_1449" x1="12.6918" y1="30.5057" x2="20.555" y2="32.7784" gradientUnits="userSpaceOnUse">
<stop stop-color="#D5D5D5"/>
<stop offset="0.29" stop-color="#A8A8A8"/>
<stop offset="1" stop-color="#919191"/>
</linearGradient>
<radialGradient id="paint54_radial_281_1449" cx="0" cy="0" r="1" gradientUnits="userSpaceOnUse" gradientTransform="translate(18.17 3.0797) rotate(14.831) scale(1.78213 2.61076)">
<stop stop-color="white"/>
<stop offset="1" stop-color="#BFBFBF"/>
</radialGradient>
<radialGradient id="paint55_radial_281_1449" cx="0" cy="0" r="1" gradientUnits="userSpaceOnUse" gradientTransform="translate(23.0728 24.2615) rotate(135.658) scale(2.84979 2.40444)">
<stop stop-color="white"/>
<stop offset="1" stop-color="#BFBFBF"/>
</radialGradient>
<radialGradient id="paint56_radial_281_1449" cx="0" cy="0" r="1" gradientUnits="userSpaceOnUse" gradientTransform="translate(4.41441 29.74) rotate(75.3813) scale(2.19813 2.05398)">
<stop stop-color="white"/>
<stop offset="1" stop-color="#BFBFBF"/>
</radialGradient>
<radialGradient id="paint57_radial_281_1449" cx="0" cy="0" r="1" gradientUnits="userSpaceOnUse" gradientTransform="translate(27.4963 10.257) rotate(64.6504) scale(1.7791 2.09221)">
<stop stop-color="white"/>
<stop offset="1" stop-color="#BFBFBF"/>
</radialGradient>
<radialGradient id="paint58_radial_281_1449" cx="0" cy="0" r="1" gradientUnits="userSpaceOnUse" gradientTransform="translate(8.23394 9.05589) rotate(42.7118) scale(1.77995 2.09122)">
<stop stop-color="white"/>
<stop offset="1" stop-color="#BFBFBF"/>
</radialGradient>
<radialGradient id="paint59_radial_281_1449" cx="0" cy="0" r="1" gradientUnits="userSpaceOnUse" gradientTransform="translate(9.52805 30.3165) rotate(13.0432) scale(1.78092 2.09008)">
<stop stop-color="white"/>
<stop offset="1" stop-color="#BFBFBF"/>
</radialGradient>
</defs>
</svg>
